<svg id="svg" version="1.1" xmlns="http://www.w3.org/2000/svg" style="display: block; background: rgb(0, 0, 0);" viewBox="0 0 253 649"><path d="M0 0 C3.62478115 1.25717781 4.2331624 2.34806565 6.01953125 5.69140625 C10.09796443 12.67127512 15.24014626 18.44758589 20.57177734 24.47558594 C21.73503981 25.81962858 22.84489288 27.20950786 23.9453125 28.60546875 C25.88451362 31.07552154 25.88451362 31.07552154 28.27734375 33.38671875 C31.29879142 36.40816642 34.02203871 39.610512 36.76953125 42.87890625 C39.92902716 46.6075248 43.05719466 50.29864785 46.58203125 53.69140625 C50.23927694 57.21614304 53.32404199 61.15617641 56.50390625 65.109375 C58.90465025 68.01615817 61.4014677 70.79526602 63.95703125 73.56640625 C79.36136953 90.33841942 79.36136953 90.33841942 80.39453125 97.44140625 C79.74703125 102.05484376 78.27376083 103.8450612 74.89453125 107.00390625 C70.75836444 108.93998433 67.40183281 109.06659473 62.89453125 109.00390625 C62.9090332 110.08325439 62.92353516 111.16260254 62.93847656 112.2746582 C63.06239784 125.94796931 62.44685968 139.54426427 61.64453125 153.19140625 C61.54466415 154.90759155 61.54466415 154.90759155 61.44277954 156.65844727 C60.34329649 175.25167894 58.74349858 193.59036007 55.89453125 212.00390625 C55.67702242 213.43342172 55.45957668 214.8629468 55.2421875 216.29248047 C50.42641945 247.70793313 43.54171026 278.52973857 36.01876068 309.39305496 C18.16550411 382.64542913 8.9960048 454.26245272 4.74387741 529.5234251 C4.54750985 532.99378552 4.34769508 536.4639448 4.14792252 539.93411064 C4.01294638 542.31190323 3.88416757 544.68997201 3.75582886 547.06813049 C3.3473547 554.38891135 2.81469836 561.68998644 2.01245117 568.97900391 C1.87167648 570.28197418 1.73090179 571.58494446 1.58586121 572.92739868 C0.89453125 576.00390625 0.89453125 576.00390625 -2.10546875 578.00390625 C-4.79296875 577.62890625 -4.79296875 577.62890625 -7.10546875 577.00390625 C-7.1135556 576.18119736 -7.12164246 575.35848846 -7.12997437 574.510849 C-7.70897466 515.23156648 -7.70897466 515.23156648 -10.10546875 456.00390625 C-10.17227844 454.79814941 -10.23908813 453.59239258 -10.30792236 452.35009766 C-14.58166962 375.47819734 -20.63913928 298.84101517 -36.40118408 223.36807251 C-43.85007169 187.5938179 -48.81210531 151.63123444 -48.10546875 115.00390625 C-49.06066406 115.29265625 -50.01585938 115.58140625 -51 115.87890625 C-69.48177438 121.2704231 -69.48177438 121.2704231 -77.29296875 117.44140625 C-79.78333396 114.09229442 -79.44261999 112.12654035 -79.10546875 108.00390625 C-78.16668983 105.56366415 -77.21544713 103.4677718 -75.98046875 101.19140625 C-75.63064941 100.52254395 -75.28083008 99.85368164 -74.92041016 99.16455078 C-74.11781384 97.63816343 -73.30789875 96.11561048 -72.4921875 94.59619141 C-70.9567654 91.72592524 -69.45326966 88.83994693 -67.94921875 85.953125 C-52.12309092 55.81816362 -33.92755178 25.85584442 -7.91796875 3.37890625 C-7.14066406 2.70601562 -6.36335938 2.033125 -5.5625 1.33984375 C-3.10546875 0.00390625 -3.10546875 0.00390625 0 0 Z " transform="translate(122.10546875,17.99609375)" style="fill: #FFFFFF;"/></svg>