<svg id="svg" version="1.1" xmlns="http://www.w3.org/2000/svg" style="display: block; background: rgb(0, 0, 0);" viewBox="0 0 250 807"><path d="M0 0 C-1.97558968 10.98514699 -8.74932374 18.62466902 -16.29296875 26.27734375 C-29.86592203 40.49046526 -22.97068127 75.26914477 -22.27090645 93.32530785 C-21.33048001 117.59973259 -20.71468545 141.87347939 -20.34751511 166.16321945 C-20.31261078 168.43030498 -20.27549097 170.69734482 -20.23782349 172.96438599 C-20.17889977 176.54255752 -20.12616287 180.12076758 -20.07848358 183.69910622 C-20.06027775 185.01613685 -20.04036554 186.3331452 -20.01859283 187.65012169 C-19.9168566 193.93382328 -19.94469274 199.9786235 -21 206.1875 C-21.23903587 208.84307873 -21.38782637 211.50179032 -21.53125 214.1640625 C-21.57278198 214.90774078 -21.61431396 215.65141907 -21.65710449 216.41763306 C-22.05571442 223.79671816 -22.31023731 231.17544503 -22.5 238.5625 C-22.52056458 239.31019653 -22.54112915 240.05789307 -22.56231689 240.82824707 C-22.88718 252.79672756 -23.04895472 264.76408747 -23.15735626 276.7360878 C-23.17987741 279.16895288 -23.20411721 281.60179485 -23.22894287 284.03463745 C-23.24136583 285.25692267 -23.24136583 285.25692267 -23.25403976 286.50390053 C-23.27092736 288.16404597 -23.2878777 289.82419077 -23.30488968 291.48433495 C-23.34566519 295.56756418 -23.38092734 299.65069712 -23.40356445 303.73406982 C-23.51900275 324.2170399 -24.47454302 344.39820844 -26.48275757 364.78347301 C-27.88044856 379.05751696 -28.17150256 393.29105065 -28.125 407.625 C-28.12217514 408.95721588 -28.12217514 408.95721588 -28.11929321 410.31634521 C-27.97055782 471.12556615 -24.94753759 518.96782679 10.34375 570.02734375 C32.54447593 602.177667 43.41068214 625.62231296 29.21020508 663.94384766 C27.51119904 668.5617685 26.20470122 673.15511278 25.0625 677.9375 C11.71121025 731.3496823 -64.19467193 735.78849949 -102.27661133 707.11450195 C-125.47386901 688.79031415 -130.30711447 659.04278249 -118 633.1875 C-117.38705078 631.83011719 -117.38705078 631.83011719 -116.76171875 630.4453125 C-111.89480515 620.53920518 -104.08378106 613.09761295 -96.21484375 605.53125 C-95.58578125 604.92063721 -94.95671875 604.31002441 -94.30859375 603.6809082 C-93.09568709 602.51025703 -91.8709979 601.35164464 -90.6328125 600.20776367 C-84.1464214 593.97206786 -82.77659783 586.90750138 -81.1875 578.3125 C-79.71080795 570.73059992 -77.65627857 563.55501694 -74.93041992 556.32666016 C-72.68126649 550.13443022 -72.06558402 544.33181949 -74 537.9375 C-74.64243806 535.77819429 -75.00093282 534.22084825 -74.9375 531.953125 C-74.71733688 529.85437531 -74.71733688 529.85437531 -77 530.1875 C-77.67896889 531.91368295 -77.67896889 531.91368295 -78.1875 534.1875 C-83.55805265 553.15810887 -94.19858323 570.14225345 -105.51025391 586.08300781 C-107.10551894 588.3365615 -108.68450732 590.60096653 -110.26171875 592.8671875 C-111.34071505 594.41175936 -112.42013201 595.95603745 -113.5 597.5 C-114.00442627 598.22372803 -114.50885254 598.94745605 -115.02856445 599.69311523 C-115.50382568 600.36802002 -115.97908691 601.0429248 -116.46875 601.73828125 C-117.09426758 602.63027222 -117.09426758 602.63027222 -117.73242188 603.5402832 C-122.08887801 609.20149459 -122.08887801 609.20149459 -126 608.1875 C-124.83463963 605.26776561 -123.15766687 602.98655341 -121.1875 600.5625 C-110.60505697 587.09793631 -101.17841932 573.24445742 -93 558.1875 C-92.64679688 557.54296875 -92.29359375 556.8984375 -91.9296875 556.234375 C-88.42709604 549.78078129 -85.49558986 543.26646147 -83.125 536.3125 C-82.81973389 535.42062988 -82.81973389 535.42062988 -82.50830078 534.51074219 C-79.67381373 525.68523611 -79.74834237 516.48385658 -79.5 507.3046875 C-79.45949555 505.89489837 -79.41884164 504.48511354 -79.37805176 503.07533264 C-79.26825558 499.21876195 -79.1650859 495.36204098 -79.06411743 491.50522995 C-78.99941604 489.04025234 -78.93325245 486.57531691 -78.86694336 484.11038208 C-78.14671322 457.10186421 -77.7682253 430.09594325 -77.52646637 403.07933044 C-77.23597321 370.6527911 -76.83560579 338.23285223 -76.125 305.8125 C-76.10466957 304.88001938 -76.08433914 303.94753876 -76.06339264 302.98680115 C-75.48007653 276.43336578 -74.56643786 249.9076778 -73.375 223.375 C-72.25264841 198.34981893 -71.56939964 173.41786249 -71.95318604 148.36224365 C-72.00594942 144.78403296 -72.05107828 141.20576676 -72.09521484 137.62744141 C-72.19817113 129.35562526 -72.3145361 121.08404127 -72.4375 112.8125 C-72.44722336 112.14730473 -72.45694672 111.48210945 -72.46696472 110.79675674 C-72.58270083 102.92511633 -72.72276295 95.05509103 -72.92480469 87.18511963 C-72.97230591 85.29150954 -73.01422563 83.39774378 -73.04833984 81.50384521 C-73.09130192 79.30309064 -73.16207102 77.10575115 -73.24609375 74.90625 C-73.29721313 73.20758789 -73.29721313 73.20758789 -73.34936523 71.47460938 C-74.53954941 67.29087752 -77.85395187 68.8768773 -81.3671875 69.72265625 C-102.77758922 73.50283103 -105.67045676 15.98428041 -102.97412109 2.95092773 C-101.15365473 -4.53998201 -92.0795948 -32.8125 -83 -32.8125 C-83 -33.4725 -83 -34.1325 -83 -34.8125 C-57.24909212 -60.63914584 1.87003462 -37.86820114 0 0 Z M-92.30566406 53.97753906 C-90.09003141 59.36992356 -87.40927158 63.39062725 -83 67.1875 C-82.505 67.6825 -82.505 67.6825 -82 68.1875 C-74.97283858 68.44303314 -72.76899821 68.48200004 -72.47265625 61.02734375 C-72.40181026 59.74543621 -72.33084262 58.46353538 -72.25976562 57.18164062 C-72.1595208 55.1633294 -72.06341165 53.14490314 -71.97094727 51.1262207 C-70.74393431 25.3334522 -58.43040463 19.34765997 -34 22.1875 C-32.78570312 22.31318359 -32.78570312 22.31318359 -31.546875 22.44140625 C-25.29423398 23.09358569 -25.29423398 23.09358569 -22.515625 23.98046875 C-10.54204614 24.96587198 -3.13854821 -0.33189006 -5.6328125 -9.015625 C-35.02872657 -84.75644864 -121.75059269 -21.93322631 -92.30566406 53.97753906 Z M-55 29.1875 C-52.70305119 29.40505259 -52.70305119 29.40505259 -49.6875 29 C-48.11548828 28.85498047 -48.11548828 28.85498047 -46.51171875 28.70703125 C-43.67357639 28.5474627 -43.67357639 28.5474627 -44 26.1875 C-45.72133746 25.82321614 -45.72133746 25.82321614 -47.8125 25.875 C-48.52019531 25.85824219 -49.22789063 25.84148437 -49.95703125 25.82421875 C-52.45077002 26.26765605 -53.66141426 27.01806794 -55 29.1875 Z M-40.875 34.5 C-41.78636719 34.80873047 -42.69773437 35.11746094 -43.63671875 35.43554688 C-44.95736328 35.89477539 -44.95736328 35.89477539 -46.3046875 36.36328125 C-47.5110083 36.77960815 -47.5110083 36.77960815 -48.74169922 37.2043457 C-54.19096017 39.57668882 -55.5124361 41.42256956 -55.8125 47.375 C-55.88082031 48.46167969 -55.94914062 49.54835938 -56.01953125 50.66796875 C-56.02225683 51.84116073 -56.01495784 53.01440021 -56 54.1875 C-56.01804687 54.939104 -56.03609375 55.69070801 -56.0546875 56.46508789 C-55.85245205 63.37603822 -53.0993473 62.63259375 -47.375 60.25 C-45.96807419 59.71495363 -44.5592209 59.18494674 -43.1484375 58.66015625 C-42.4572583 58.38534424 -41.7660791 58.11053223 -41.05395508 57.82739258 C-38.94137977 57.16923736 -37.29441048 57.1301006 -35.09765625 57.140625 C-29.81524954 55.51526909 -30.49527968 50.8734401 -30.0625 45.875 C-29.89524414 44.42963867 -29.89524414 44.42963867 -29.72460938 42.95507812 C-28.32995376 30.45515234 -29.14752228 30.41265328 -40.875 34.5 Z M-54.33813477 75.5769043 C-54.36057755 76.67781906 -54.38302032 77.77873383 -54.40614319 78.91300964 C-54.41915052 80.11256641 -54.43087478 81.31213769 -54.44140625 82.51171875 C-54.44830915 83.11575846 -54.45521206 83.71979816 -54.46232414 84.34214211 C-54.49809952 87.53221516 -54.52167853 90.72211235 -54.53540039 93.91235352 C-54.55204001 97.21904423 -54.61060468 100.52363012 -54.67854404 103.82960796 C-54.72311159 106.36456003 -54.73687722 108.8989948 -54.74201775 111.43430519 C-54.74995358 112.65414407 -54.7697278 113.87396245 -54.80124092 115.09342003 C-55.18686985 124.71689313 -55.18686985 124.71689313 -47 125.1875 C-46.3282373 125.04014404 -45.65647461 124.89278809 -44.96435547 124.7409668 C-44.43729004 124.54156494 -43.91022461 124.34216309 -43.3671875 124.13671875 C-42.7896875 123.93369141 -42.2121875 123.73066406 -41.6171875 123.52148438 C-40.41501593 123.07538708 -39.21458855 122.62457087 -38.015625 122.16992188 C-36.3046875 121.57421875 -36.3046875 121.57421875 -34 121.1875 C-35.0546875 123.44140625 -35.0546875 123.44140625 -37 126.1875 C-37.4125 126.93 -37.825 127.6725 -38.25 128.4375 C-41.97280911 132.16030911 -46.37262007 131.55416137 -50.875 129.8125 C-57.16348512 128.55480298 -55.20238773 142.46483554 -55.23828125 147.40625 C-55.246353 148.4641272 -55.25442474 149.52200439 -55.26274109 150.61193848 C-55.27651068 152.83404938 -55.28726436 155.0561808 -55.29516602 157.27832031 C-55.30679515 159.56549207 -55.32741438 161.85263448 -55.35668945 164.13964844 C-55.39888509 167.4370371 -55.41545681 170.73362676 -55.42578125 174.03125 C-55.44328934 175.06439331 -55.46079742 176.09753662 -55.47883606 177.1619873 C-55.47591049 178.10046509 -55.47298492 179.03894287 -55.4699707 180.00585938 C-55.47583694 180.8396814 -55.48170319 181.67350342 -55.48774719 182.53259277 C-54.68236222 185.26523262 -53.31420537 184.01373469 -51 183.1875 C-48.58417108 182.99063385 -46.23059788 182.85955879 -43.8125 182.8125 C-43.14992188 182.78961914 -42.48734375 182.76673828 -41.8046875 182.74316406 C-36.77653334 182.74071369 -34.44676693 183.86710179 -30.5 186.9375 C-27.97977387 188.56631373 -27.97977387 188.56631373 -26.68652344 186.794487 C-26.74356445 186.07078163 -26.80060547 185.34707626 -26.859375 184.60144043 C-26.91323364 183.79299934 -26.96709229 182.98455826 -27.02258301 182.15161896 C-27.09763062 181.26047142 -27.17267822 180.36932388 -27.25 179.45117188 C-27.37638536 177.58762071 -27.50068774 175.72392727 -27.62304688 173.86010742 C-27.7225061 172.43164993 -27.7225061 172.43164993 -27.82397461 170.97433472 C-28.08022648 166.91735398 -28.19284101 162.86243207 -28.28125 158.79882812 C-28.29961914 158.02673256 -28.31798828 157.25463699 -28.33691406 156.45914459 C-28.37423539 154.86723342 -28.4104371 153.27529562 -28.44555664 151.68333435 C-28.50213287 149.12219757 -28.56222225 146.56116131 -28.62304688 144.00012207 C-28.77324239 137.64801312 -28.91781308 131.29577885 -29.0625 124.94354248 C-29.1858037 119.5399747 -29.31136543 114.13646774 -29.43969727 108.73301697 C-29.49775668 106.25210838 -29.55269 103.77114498 -29.60742188 101.29016113 C-29.79715031 93.04320814 -30.0733564 84.80427254 -30.46875 76.56445312 C-30.50609253 75.75918938 -30.54343506 74.95392563 -30.58190918 74.12425995 C-31.75259716 51.05926526 -54.05052672 58.83665688 -54.33813477 75.5769043 Z M-49.625 187.0625 C-50.40101562 187.22492188 -51.17703125 187.38734375 -51.9765625 187.5546875 C-56.30615519 188.90873 -56.8900973 191.29236705 -55 195.1875 C-52.17375515 195.80447331 -49.36969109 195.5028468 -46.5 195.3125 C-41.00600456 195.07954289 -36.49458627 194.92046116 -31.3125 197.0625 C-27.6631879 198.90462641 -27.6631879 198.90462641 -27.6875 195.625 C-30.69886235 185.91444749 -41.00387328 185.18834202 -49.625 187.0625 Z M-66.23414612 206.00357056 C-66.26076324 206.84999619 -66.28738037 207.69642181 -66.31480408 208.5684967 C-66.33926102 209.50962814 -66.36371796 210.45075958 -66.38891602 211.42041016 C-66.41832275 212.40253983 -66.44772949 213.38466949 -66.47802734 214.39656067 C-66.5748526 217.67310635 -66.6644582 220.94980773 -66.75390625 224.2265625 C-66.81936035 226.50232005 -66.88519693 228.77806663 -66.95140076 231.05380249 C-67.09002967 235.8440455 -67.2248437 240.63438385 -67.35717773 245.42480469 C-67.50928056 250.93006611 -67.6661146 256.4351752 -67.82587105 261.94021952 C-67.98008637 267.25491311 -68.13187324 272.56967235 -68.2823925 277.88447189 C-68.3461537 280.13369332 -68.41034072 282.38290272 -68.47497749 284.63209915 C-68.67069318 291.48349686 -68.8489504 298.33496992 -69 305.1875 C-69.01915844 305.99443047 -69.03831688 306.80136093 -69.05805588 307.63274384 C-69.10421583 309.73223239 -69.13730321 311.83133782 -69.16381836 313.93115234 C-69.18141708 315.06128754 -69.19901581 316.19142273 -69.21714783 317.35580444 C-69.14548904 317.96026398 -69.07383026 318.56472351 -69 319.1875 C-67.99772584 317.51162739 -67.99772584 317.51162739 -67 315.1875 C-65.82015599 314.01153262 -64.62077618 312.8549566 -63.40625 311.71484375 C-58.7322446 306.45779982 -59.1697404 301.49832063 -59.5 294.75 C-59.53440879 293.54793146 -59.56584758 292.34577463 -59.59448242 291.14355469 C-59.65972838 288.67992148 -59.74675779 286.21854774 -59.85302734 283.75634766 C-59.99354075 280.48784544 -60.07572054 277.22009108 -60.14453125 273.94921875 C-60.47007787 261.08178003 -61.58239027 248.34706917 -62.90893555 235.5534668 C-63.83638826 226.51442818 -64.43808888 217.51967277 -64.70898438 208.43286133 C-64.73541016 207.60036865 -64.76183594 206.76787598 -64.7890625 205.91015625 C-64.80662598 205.18578369 -64.82418945 204.46141113 -64.84228516 203.71508789 C-65.29649793 199.31569267 -66.2000574 204.81154185 -66.23414612 206.00357056 Z M-55 215.1875 C-54.94439458 216.41611501 -54.90317718 217.64545014 -54.875 218.875 C-54.83415897 220.12502725 -54.79249937 221.37502803 -54.75 222.625 C-54.73678711 223.22755615 -54.72357422 223.8301123 -54.70996094 224.45092773 C-54.25633238 232.26500992 -48.79559755 233.17344473 -42 232.1875 C-40.87464844 232.03667969 -39.74929687 231.88585937 -38.58984375 231.73046875 C-26.84478458 229.28604128 -25.69615935 218.93088183 -29 208.1875 C-32 206.85416667 -32 206.85416667 -35 208.1875 C-40.55763516 208.78957714 -44.82022307 207.97001238 -50.0625 206.0625 C-57.73769989 203.82523811 -55.79305523 209.29623256 -55 215.1875 Z M-35.3125 233.6875 C-38.23468271 234.92471445 -40.41489925 235.25459064 -43.52026367 234.89233398 C-54.72305437 233.60465584 -55.65120652 237.46248688 -54 247.75 C-53.83792148 249.07523387 -53.68385634 250.40146959 -53.53735352 251.72851562 C-53.3002578 253.86988818 -53.05794749 256.0093782 -52.79188538 258.14736938 C-51.75265631 266.60079391 -51.41372634 275.07679231 -51.04956055 283.58126831 C-50.86974587 287.76328165 -50.67059578 291.94419347 -50.46484375 296.125 C-50.43253159 296.85198593 -50.40021942 297.57897186 -50.3669281 298.32798767 C-50.17022966 302.34604462 -49.89106235 306.25715829 -49 310.1875 C-47.97469597 309.21346117 -46.98230498 308.2048873 -46 307.1875 C-43.4375 307.5625 -43.4375 307.5625 -41 308.1875 C-40.01 307.6925 -40.01 307.6925 -39 307.1875 C-37.9375 309.125 -37.9375 309.125 -37 311.1875 C-31.46531983 311.1875 -30.18152683 260.22584148 -29.84695435 254.16281128 C-29.74049546 252.25981541 -29.62937685 250.35707459 -29.51364136 248.45462036 C-29.35229358 245.76458319 -29.21059878 243.07421607 -29.07421875 240.3828125 C-29.02134705 239.55576309 -28.96847534 238.72871368 -28.91400146 237.87660217 C-28.63494014 231.69741673 -29.98655755 231.13671603 -35.3125 233.6875 Z M-61 309.1875 C-61 309.8475 -61 310.5075 -61 311.1875 C-60.34 310.8575 -59.68 310.5275 -59 310.1875 C-59.66 309.8575 -60.32 309.5275 -61 309.1875 Z M-45 313.1875 C-45 312.1975 -45 311.2075 -45 310.1875 C-46.5797509 310.02938612 -46.5797509 310.02938612 -45 313.1875 Z M-64 313.1875 C-63.01 313.1875 -62.02 313.1875 -61 313.1875 C-61.94729537 310.50233984 -61.94729537 310.50233984 -64 313.1875 Z M-39.29296875 313.1953125 C-41.46618641 314.45846418 -42.83303653 314.19462061 -45.3125 314.0625 C-51.58902384 314.84706548 -48.74667076 320.40902327 -47.55322266 325.02001953 C-46.4337398 329.40606049 -45.4785136 333.83080029 -44.5 338.25 C-44.27836182 339.23315186 -44.05672363 340.21630371 -43.82836914 341.22924805 C-42.03842865 349.40146799 -41.04924519 357.51147668 -40.359375 365.83984375 C-40.54335879 369.35321453 -40.54335879 369.35321453 -39 369.1875 C-38.00427789 365.34973704 -37.81076798 361.60731575 -37.68359375 357.65625 C-37.66272202 357.03126114 -37.64185028 356.40627228 -37.62034607 355.76234436 C-37.55453242 353.73751472 -37.49549645 351.71256761 -37.4375 349.6875 C-37.41665344 348.99985565 -37.39580688 348.3122113 -37.37432861 347.60372925 C-37.10406816 338.6532087 -36.90116088 329.70494788 -36.875 320.75 C-36.87040771 319.86957031 -36.86581543 318.98914063 -36.86108398 318.08203125 C-36.86309814 317.293125 -36.8651123 316.50421875 -36.8671875 315.69140625 C-36.86831543 315.00892822 -36.86944336 314.3264502 -36.87060547 313.62329102 C-37.07477792 311.35774724 -37.77058942 312.0086845 -39.29296875 313.1953125 Z M-69.30102539 329.60961914 C-69.32063009 330.18646643 -69.34023479 330.76331371 -69.36043358 331.35764122 C-69.42418925 333.29168051 -69.47998433 335.2258542 -69.53515625 337.16015625 C-69.57725949 338.52653679 -69.61942049 339.89291554 -69.66163635 341.2592926 C-70.06998175 354.94192473 -70.23690492 368.6267143 -70.38870239 382.31411743 C-70.71247458 411.26598222 -71.35601908 440.19989843 -72.27145576 469.13901901 C-72.69237844 482.46652886 -73.08835905 495.79014829 -73.1484375 509.125 C-73.15694229 510.11087601 -73.16544708 511.09675201 -73.17420959 512.11250305 C-73.17188136 519.63289827 -72.19927248 526.76101456 -70.7265625 534.12109375 C-69.81558791 538.82176786 -69.52861621 543.52368739 -69.37915039 548.3034668 C-69.33017993 550.05610568 -69.33017993 550.05610568 -69 552.1875 C-66.59269141 549.78019141 -66.81493166 549.42619601 -67 546.1875 C-67.08835609 542.92569119 -66.85659605 540.11183706 -66.09716797 536.9440918 C-64.52030916 529.4005736 -64.0339377 521.75319139 -63.4453125 514.08203125 C-63.38080021 513.25707468 -63.31628792 512.43211811 -63.24982071 511.58216286 C-61.80999587 492.91807041 -61.27141402 474.25849468 -60.92476654 455.54671097 C-60.87411327 452.82739596 -60.82098068 450.10813938 -60.76715088 447.3888855 C-60.61740448 439.80471008 -60.46945873 432.22052084 -60.33468628 424.63606262 C-60.14175357 413.87345016 -59.9046146 403.11340024 -59.61041069 392.35306454 C-59.40222387 384.71391079 -59.22046849 377.07445503 -59.05920601 369.43416691 C-58.96226284 364.89454062 -58.85163886 360.35615521 -58.70892334 355.81771851 C-58.57647829 351.58873545 -58.48067318 347.36057269 -58.41415405 343.13005447 C-58.38300196 341.57472438 -58.33793448 340.01960688 -58.27853394 338.46509933 C-57.18924295 327.87061102 -57.18924295 327.87061102 -65.17459106 326.7485199 C-67 327.1875 -67 327.1875 -68 324.1875 C-70.06053552 324.1875 -69.25335071 328.13126459 -69.30102539 329.60961914 Z M-50.30970764 336.36997986 C-50.33778 337.45823563 -50.36585236 338.54649139 -50.39477539 339.66772461 C-50.41299378 340.26844347 -50.43121218 340.86916233 -50.44998264 341.48808479 C-50.50903522 343.52186105 -50.55334609 345.55569655 -50.59765625 347.58984375 C-50.63603501 349.02943529 -50.67522613 350.46900538 -50.71517944 351.90855408 C-50.82112879 355.8268839 -50.91390384 359.745432 -51.00434494 363.66414642 C-51.0820092 366.95053938 -51.16790013 370.2366965 -51.25374317 373.52288437 C-51.68467631 390.07495965 -52.03695676 406.62713576 -52.2421875 423.18359375 C-52.25051228 423.85122049 -52.25883705 424.51884724 -52.26741409 425.20670509 C-52.30039916 427.86498526 -52.33296307 430.52327043 -52.36537361 433.18155766 C-52.38928887 435.14187335 -52.41334648 437.10218722 -52.4375 439.0625 C-52.44545845 439.71026524 -52.4534169 440.35803047 -52.46161652 441.02542496 C-52.71507869 461.31245101 -53.37218375 481.55168095 -54.4375 501.8125 C-54.46858227 502.41131737 -54.49966454 503.01013474 -54.53168869 503.62709808 C-55.16663667 515.84298312 -55.91527154 528.04650269 -56.96484375 540.234375 C-57.07209023 541.53551743 -57.07209023 541.53551743 -57.1815033 542.86294556 C-57.70957125 548.64131919 -58.75187999 554.17786175 -60.125 559.8125 C-61.59060796 565.85027651 -62.2293139 571.19686585 -62.0390625 577.44921875 C-61.89257731 587.71783082 -64.42119757 592.51259144 -72 599.1875 C-73.10665761 600.39570972 -74.19038386 601.62532986 -75.25 602.875 C-77.88507391 605.94422796 -80.59974762 608.92084069 -83.36181641 611.875 C-111.44582534 641.95195534 -123.97969818 688.94972006 -76 708.1875 C-37.36376308 721.47174771 12.69387213 706.80351016 10 659.1875 C8.42679301 643.55859117 0.38700353 631.30462659 -10.6875 620.625 C-31.71799938 600.18958647 -41.22088201 576.37616395 -41.13037109 547.39526367 C-41.12518627 545.44506371 -41.13024385 543.49511307 -41.13671875 541.54492188 C-41.14030683 534.09063051 -40.95377822 526.65861188 -40.63934326 519.21089172 C-39.90985616 501.84914654 -39.84125107 484.5070458 -39.87102509 467.1318512 C-39.87505484 464.65377809 -39.87753402 462.17570723 -39.87969971 459.69763184 C-39.08825797 402.732688 -39.08825797 402.732688 -45.5 346.3125 C-45.71366211 345.21599121 -45.92732422 344.11948242 -46.14746094 342.98974609 C-46.46118652 341.48275146 -46.46118652 341.48275146 -46.78125 339.9453125 C-46.96751953 339.0495752 -47.15378906 338.15383789 -47.34570312 337.23095703 C-48.05936473 335.00209596 -49.72644457 332.25978129 -50.30970764 336.36997986 Z M-32.203125 506.18359375 C-32.20882507 507.33054214 -32.21452515 508.47749054 -32.22039795 509.65919495 C-32.23084709 512.08228998 -32.23672772 514.50535248 -32.24023438 516.9284668 C-32.24459684 519.37686243 -32.25841253 521.82490127 -32.28125 524.27319336 C-32.7870709 556.15956157 -32.7870709 556.15956157 -21 585.1875 C-19.7534963 581.4479889 -20.44199275 580.21070013 -21.6953125 576.51953125 C-24.01246725 569.42167318 -25.76204294 562.24271603 -27.40234375 554.9621582 C-27.88527512 552.82962708 -28.38384897 550.70109595 -28.8828125 548.57226562 C-29.1910474 547.21896449 -29.49837612 545.86545656 -29.8046875 544.51171875 C-29.95557831 543.8744133 -30.10646912 543.23710785 -30.26193237 542.58049011 C-31.22896129 538.1875 -31.22896129 538.1875 -29 538.1875 C-28.70458984 539.63330078 -28.70458984 539.63330078 -28.5859375 541.7578125 C-28.02687698 548.00024813 -26.55135073 553.99952925 -25.09863281 560.07958984 C-24.62787052 562.0504823 -24.16482548 564.02306096 -23.703125 565.99609375 C-22.96183783 569.14981592 -22.20183625 572.29849711 -21.42755127 575.4442749 C-21.02255062 577.09555591 -20.62696202 578.74913707 -20.23193359 580.40283203 C-18.97206847 585.41119511 -17.8350992 589.33979352 -14.375 593.3125 C-13.67246094 594.1271875 -12.96992188 594.941875 -12.24609375 595.78125 C-9.28873523 598.94948104 -6.24834259 602.01829008 -3.15234375 605.05078125 C12.29936251 620.39031542 21.62860693 636.34015315 24.47265625 658.14453125 C24.64667969 658.81871094 24.82070312 659.49289062 25 660.1875 C27.0327556 658.1547444 27.44208469 657.31462248 28.25390625 654.66796875 C28.46853516 653.97509766 28.68316406 653.28222656 28.90429688 652.56835938 C29.12150391 651.84455078 29.33871094 651.12074219 29.5625 650.375 C29.78357422 649.66279297 30.00464844 648.95058594 30.23242188 648.21679688 C39.13551098 619.14054514 23.43290395 593.48176796 5.82080078 571.17749023 C-13.02339763 547.09227206 -27.06846856 518.60544878 -29.74291992 487.85742188 C-30.33135323 484.03512006 -32.18892091 502.55204094 -32.203125 506.18359375 Z M-72 563.1875 C-71 566.1875 -71 566.1875 -71 566.1875 Z M-73.625 571.6875 C-73.72039062 572.5228125 -73.81578125 573.358125 -73.9140625 574.21875 C-74.33570567 576.35400811 -74.33570567 576.35400811 -73 576.1875 C-72.73378292 574.69668437 -72.5376462 573.19313906 -72.375 571.6875 C-72.27960938 570.8521875 -72.18421875 570.016875 -72.0859375 569.15625 C-71.85152322 563.78603203 -73.47497921 570.29873616 -73.625 571.6875 Z M-75 576.1875 C-75.69967567 578.29979101 -76.2137481 580.33093862 -76.6875 582.5 C-76.92049805 583.46969727 -76.92049805 583.46969727 -77.15820312 584.45898438 C-77.51093229 586.02059754 -77.76639213 587.60368154 -78 589.1875 C-75.40784647 587.89142324 -75.48924572 587.11760108 -74.8125 584.375 C-74.63332031 583.68792969 -74.45414063 583.00085938 -74.26953125 582.29296875 C-73.97914503 580.02458946 -73.98122524 578.27356261 -75 576.1875 Z " transform="translate(159,67.8125)" style="fill: #FFFFFF;"/></svg>