<svg id="svg" version="1.1" xmlns="http://www.w3.org/2000/svg" style="display: block; background: rgb(0, 0, 0);" viewBox="0 0 393 924"><path d="M0 0 C0.48194824 0.3710083 0.96389648 0.7420166 1.46044922 1.12426758 C27.27384924 21.45994545 36.18144292 59.00149974 29.52099609 89.88476562 C28.2894603 94.88477788 26.37714589 99.4296135 24 104 C23.58105469 104.83402344 23.16210938 105.66804687 22.73046875 106.52734375 C10.66873234 128.53045369 -13.25151148 143.44965167 -38.3125 143.3125 C-39.37339844 143.30758545 -40.43429688 143.3026709 -41.52734375 143.29760742 C-74.62690896 142.81158218 -104.56022561 130.90888302 -119.96142578 100.07519531 C-133.9504723 69.9081826 -133.17462511 30.97356608 -111.82470703 4.38037109 C-82.41822199 -30.60948409 -33.16255608 -27.2441648 0 0 Z " transform="translate(262,730)" style="fill: #FFFFFF;"/><path d="M0 0 C4.08884613 2.43120581 3.4548171 5.47797816 3.43948364 9.79678345 C3.44104363 10.4648358 3.44260362 11.13288815 3.44421089 11.82118452 C3.448218 14.07433386 3.44503117 16.32741648 3.44189453 18.58056641 C3.4432497 20.19488057 3.44503029 21.80919442 3.44720459 23.42350769 C3.45179351 27.84391668 3.44997602 32.26430249 3.4468255 36.68471193 C3.44427597 41.3892043 3.44664967 46.0936948 3.44821167 50.79818726 C3.45003975 58.78343045 3.4476249 66.76866446 3.44287109 74.75390625 C3.43814651 82.77832656 3.43794185 90.80272824 3.44287109 98.82714844 C3.46798579 140.77318909 3.38282868 182.71329167 2.8359375 224.65625 C2.82511218 225.4879208 2.81428685 226.31959161 2.80313349 227.17646456 C1.70684717 310.75445906 1.70684717 310.75445906 -1.6875 314.375 C-5.31095605 314.148534 -7.08459787 313.97790213 -9.6875 311.375 C-9.93473816 309.39207458 -9.93473816 309.39207458 -9.93041992 306.91186523 C-9.93349655 305.97483261 -9.93657318 305.03779999 -9.93974304 304.07237244 C-9.92896477 302.51867699 -9.92896477 302.51867699 -9.91796875 300.93359375 C-9.91751053 299.82863052 -9.91705231 298.7236673 -9.9165802 297.58522034 C-9.9150037 295.19989971 -9.90668872 292.81472654 -9.89331055 290.42944336 C-9.87429332 287.01738931 -9.87279426 283.60547031 -9.87304688 280.19335938 C-9.8536441 267.97107325 -9.70641375 255.75296099 -9.46923828 243.53295898 C-9.44849275 242.46192114 -9.42774721 241.39088329 -9.40637302 240.28738976 C-9.38496722 239.18291307 -9.36356142 238.07843639 -9.34150696 236.94049072 C-8.84100703 211.05816977 -8.55058525 185.17979167 -8.40625 159.29296875 C-8.40146897 158.44685335 -8.39668793 157.60073795 -8.39176202 156.72898269 C-8.30807087 141.89630161 -8.23390306 127.0635745 -8.16143799 112.23083496 C-8.11407482 102.56061004 -8.0646559 92.89040307 -8.00995111 83.22021657 C-7.98686442 79.10855629 -7.96526594 74.99690242 -7.94786072 70.88521385 C-7.90620051 61.15605969 -7.83208306 51.42792225 -7.71406937 41.69938612 C-7.68614832 39.25675 -7.66362572 36.81409734 -7.64144897 34.37140274 C-7.60095175 30.17191209 -7.5380846 25.97323918 -7.46024227 21.77428114 C-7.43360561 20.17715956 -7.41361658 18.57991167 -7.40065098 16.9826206 C-7.38128972 14.77587263 -7.33723149 12.57093146 -7.2869873 10.36470032 C-7.28647889 9.38750099 -7.28647889 9.38750099 -7.2859602 8.39056027 C-7.13570767 3.56163545 -5.57742673 -1.29707598 0 0 Z " transform="translate(173.6875,331.625)" style="fill: #FFFFFF;"/><path d="M0 0 C10.45594839 3.73744538 14.54853768 20.04887474 15.73046875 29.80078125 C16.02667439 33.09494699 15.95012591 36.30267552 15.80078125 39.60546875 C15.76500977 40.5687207 15.72923828 41.53197266 15.69238281 42.52441406 C15.60598494 44.46219481 15.47913726 46.39860432 15.31152344 48.33105469 C15.12493218 51.75447125 15.12493218 51.75447125 16 55 C20.98652234 56.19756641 26.32968384 53.56525582 31 52 C33.35122965 51.76542256 35.52927845 51.61886782 37.875 51.625 C38.79200684 51.62632935 38.79200684 51.62632935 39.72753906 51.62768555 C45.78157573 51.78569366 52.01493367 53.25409767 55 59 C56.19223966 63.94832212 55.55316416 67.06116041 51.6875 70.4375 C42.82182894 77.25867669 31.38286314 74.22846135 22 70 C21.30414795 69.52038818 20.6082959 69.04077637 19.89135742 68.54663086 C18.9551355 68.27604858 18.9551355 68.27604858 18 68 C17.49167959 70.20433199 17.36783017 71.94139299 17.36328125 74.18359375 C17.35233932 74.83248062 17.3413974 75.48136749 17.3301239 76.1499176 C17.31415792 77.53126011 17.30909094 78.91276244 17.3137207 80.29418945 C17.31250656 82.42598289 17.2529281 84.55090688 17.18945312 86.68164062 C17.18131216 88.01560794 17.17663919 89.34960187 17.17578125 90.68359375 C17.15220047 91.32936874 17.12861969 91.97514374 17.10432434 92.64048767 C17.05780076 94.59134952 17.05780076 94.59134952 18 97 C21.92728926 96.93083491 25.09528209 96.23877729 28.625 94.5 C33.56984265 92.08788164 38.56469484 91.7964556 44 91.75 C44.60328125 91.729375 45.2065625 91.70875 45.828125 91.6875 C50.04936464 91.65079357 52.68930364 92.36483175 56 95 C57.9196577 101.35886613 56.5571617 105.2878588 51.9375 110.1875 C42.45043898 116.0412185 33.06606577 116.56515981 23.5 110.875 C21.16018867 109.48272629 21.16018867 109.48272629 19 109 C16.85031733 111.51842385 17.11296959 114.8242994 17 118 C16.93425781 119.05058594 16.86851562 120.10117188 16.80078125 121.18359375 C16.14513991 128.00366161 16.14513991 128.00366161 20 133 C21.82980631 133.22135806 21.82980631 133.22135806 23.75 132.8125 C24.4615625 132.69648438 25.173125 132.58046875 25.90625 132.4609375 C28.21692526 131.98850721 28.21692526 131.98850721 31.25 130.9375 C38.14144574 128.84148425 46.13937994 128.50820988 52 133 C55.3225921 137.91864088 54.77237092 143.88614274 52.8125 149.25 C52.214375 150.1575 51.61625 151.065 51 152 C50.69449219 152.48726562 50.38898438 152.97453125 50.07421875 153.4765625 C46.25475558 158.4488091 40.74143681 157.86968145 35 157 C32.32628619 156.10748522 29.80281568 155.05151622 27.23046875 153.90234375 C24.1788708 152.66780938 22.23456743 152.4339507 19 153 C16.17277743 155.69213344 16.74205865 159.38153903 16.8125 163 C16.81314453 163.6290625 16.81378906 164.258125 16.81445312 164.90625 C16.84277121 167.87650209 17.05347432 170.16042296 18 173 C24.99102882 174.20998576 30.04490335 171.45905434 36.14453125 168.41015625 C41.74833863 165.64274932 47.07306816 164.66379199 52.875 167.3125 C57.13138641 170.69257156 57.71640896 173.58071283 57 179 C54.74578305 185.63004987 49.7819821 189.60555961 43 191 C39.54441274 191.21952535 36.08689523 191.18512884 32.625 191.1875 C31.69171875 191.19974609 30.7584375 191.21199219 29.796875 191.22460938 C22.1074752 191.24094663 22.1074752 191.24094663 18.296875 189.7265625 C17.53890625 189.48679687 16.7809375 189.24703125 16 189 C15.73309545 190.79537281 15.73309545 190.79537281 16.625 193.1875 C18.00424411 198.37608499 18.00683255 202.81260873 17.58203125 208.140625 C17.71996094 208.75421875 17.85789063 209.3678125 18 210 C21.673358 209.1542884 24.56866494 207.07483397 27.625 204.9375 C34.33236045 200.25608289 41.83294118 199.19503595 49.4375 202.6875 C54.76516272 205.77646808 56.79337887 209.76375352 56.5390625 215.87890625 C54.51958486 223.82511176 46.42353815 228.3381291 39.11328125 230.578125 C29.73868056 232.44957948 18.62716738 231.61254795 12 224 C10.9375 222.5625 10.9375 222.5625 10 221 C9.649375 220.46117187 9.29875 219.92234375 8.9375 219.3671875 C7.4956355 215.72647964 7.3384716 212.00488742 7 208.125 C6.52626024 202.74717638 5.76811999 198.13115639 4 193 C3.69921875 190.18359375 3.69921875 190.18359375 3.6875 187.4375 C3.67074219 186.52871094 3.65398437 185.61992187 3.63671875 184.68359375 C4 182 4 182 5.49943542 179.76921082 C7.30851723 176.43064812 7.41656288 173.7057459 7.37231445 170.0090332 C7.3759113 169.32001545 7.37950815 168.6309977 7.383214 167.92110062 C7.39120282 165.63075326 7.37749616 163.3410904 7.36328125 161.05078125 C7.36356677 159.4221135 7.3649644 157.79344561 7.36740112 156.16477966 C7.36926356 151.78830563 7.35064712 147.41215046 7.3264122 143.03575134 C7.31249932 140.31236624 7.30370642 137.58901124 7.29653931 134.86560059 C7.23345724 112.07605203 7.00191258 89.29228424 6.2455101 66.51430893 C6.18876765 64.78855422 6.13543673 63.06268842 6.08218384 61.33682251 C5.6786171 48.78340718 4.85901711 36.31673187 3.55078125 23.828125 C3.45900636 22.93247456 3.45900636 22.93247456 3.36537743 22.01873016 C2.71880378 15.80235353 1.92857045 9.94985581 0 4 C-0.375 1.4375 -0.375 1.4375 0 0 Z " transform="translate(164,106)" style="fill: #FFFFFF;"/><path d="M0 0 C8.26851864 13.96252125 9.65034408 28.38785093 8.23206234 44.28813648 C7.23934485 55.88896038 6.83830569 67.41178063 6.79467773 79.05200195 C6.7850645 80.70752691 6.77505262 82.36304958 6.76467896 84.01856995 C6.73783504 88.48943479 6.71667319 92.96030976 6.69667697 97.4312098 C6.67443263 102.20384645 6.64718057 106.976455 6.62062073 111.74906921 C6.57641027 119.82301482 6.53569857 127.89697196 6.49731445 135.97094727 C6.45868446 144.09303577 6.41723918 152.21510204 6.37231445 160.3371582 C6.1441905 201.58749613 5.96794547 242.83639983 6.00190496 284.08742142 C6.0223212 309.3057434 5.92790991 334.51865094 5.62768555 359.7355957 C5.57060548 364.53148396 5.5210953 369.32742166 5.47328281 374.12341022 C5.43406047 377.97840166 5.39110609 381.83334486 5.34705925 385.68828392 C5.32722052 387.46000144 5.3084395 389.23173125 5.29092598 391.00347328 C5.1783957 402.13209754 4.79468676 413.22344367 4.22935486 424.33818054 C3.96903023 429.48999627 3.80901863 434.63937576 3.71875 439.796875 C3.70034058 440.68449524 3.68193115 441.57211548 3.66296387 442.4866333 C3.60597732 445.24104346 3.55251806 447.99550132 3.5 450.75 C3.43003701 454.39069087 3.35749684 458.03131008 3.28125 461.671875 C3.26205505 462.59566956 3.24286011 463.51946411 3.2230835 464.47125244 C3.09436301 470.1648288 2.88336689 475.84947505 2.6206665 481.53833008 C1.87336174 497.94891509 1.77828104 514.35081238 1.75976562 530.77587891 C1.75535572 534.0992312 1.74132805 537.42232756 1.71875 540.74560547 C1.41265753 586.78186004 7.49846781 624.77535468 45.0546875 655.69140625 C45.69664062 656.22636719 46.33859375 656.76132812 47 657.3125 C47.5775 657.78300781 48.155 658.25351562 48.75 658.73828125 C50 660 50 660 50 662 C50.66 662 51.32 662 52 662 C53.4474451 663.52700868 54.75613153 665.04527192 56.0625 666.6875 C56.65695923 667.4285498 56.65695923 667.4285498 57.26342773 668.18457031 C89.18750619 708.49777974 98.42960037 763.52356051 76 811 C69.47715652 824.47644077 59.43567376 835.49629161 48 845 C47.14148438 845.74121094 46.28296875 846.48242188 45.3984375 847.24609375 C43 849 43 849 40 849 C39.88986572 849.5969165 39.77973145 850.19383301 39.66625977 850.80883789 C38.67102843 854.08190539 36.2713569 854.7528845 33.33984375 856.05859375 C32.47460587 856.46310005 32.47460587 856.46310005 31.59188843 856.8757782 C29.71428365 857.74647149 27.82719116 858.59339246 25.9375 859.4375 C25.29718842 859.72824402 24.65687683 860.01898804 23.99716187 860.31854248 C14.52875424 864.61575544 5.1485742 868.60901798 -5 871 C-5.60585937 871.15645996 -6.21171875 871.31291992 -6.8359375 871.47412109 C-53.37982448 883.21872743 -100.00935137 864.63874213 -134 833 C-134.91072266 832.17048828 -134.91072266 832.17048828 -135.83984375 831.32421875 C-165.22804989 803.45728446 -185.87842163 753.17671169 -173.64697266 712.93603516 C-168.25593209 696.80360055 -161.35197022 682.53175629 -151 669 C-150.58105469 668.44957031 -150.16210938 667.89914062 -149.73046875 667.33203125 C-147.21183638 664.02586192 -144.68826868 660.72346252 -142.12695312 657.45019531 C-141.3802234 656.48928228 -140.64431338 655.51985522 -139.91992188 654.54199219 C-137.97600853 651.9691657 -137.15654019 651.05218006 -134 650 C-132.5741284 648.37500298 -132.5741284 648.37500298 -131.25 646.375 C-129.22233458 643.54326037 -127.19706142 641.15554225 -124.625 638.8125 C-103.96933969 618.5690369 -106.66603338 586.0537232 -105.94894029 559.39123502 C-105.88821811 557.13911104 -105.82530378 554.88705503 -105.76221597 552.63499618 C-104.723876 515.06197613 -104.71995734 477.48813638 -104.76116087 439.90357966 C-104.77187979 429.85509537 -104.77148477 419.80661837 -104.77100524 409.75812946 C-104.77051124 391.82425903 -104.77949295 373.89040684 -104.79418945 355.95654297 C-104.8083613 338.65315419 -104.81535554 321.34978137 -104.81469727 304.04638672 C-104.81465731 302.97315868 -104.81461735 301.89993063 -104.81457619 300.79418053 C-104.81453583 299.72256785 -104.81449548 298.65095518 -104.8144539 297.5468694 C-104.81376203 277.64202756 -104.81965291 257.73719231 -104.82860712 237.83235262 C-104.83159817 230.86171635 -104.8326835 223.89108132 -104.83313942 216.92044449 C-104.83382574 208.43871984 -104.83835033 199.9570064 -104.84747223 191.4752865 C-104.85204038 187.16610586 -104.85515433 182.85693941 -104.85387802 178.5477562 C-104.8500487 162.00736439 -104.93086854 145.51392485 -105.76907158 128.99039078 C-106.18770725 120.63771647 -106.20443528 112.27555469 -106.23828125 103.9140625 C-106.24235678 103.0318037 -106.2464323 102.14954491 -106.25063133 101.24055099 C-106.27115315 96.59022029 -106.28560833 91.9399163 -106.29516602 87.28955078 C-106.30630192 82.55668999 -106.34088242 77.82428982 -106.38033772 73.09159279 C-106.4067121 69.37990569 -106.41487496 65.66832692 -106.41844749 61.95655441 C-106.42324102 60.2130145 -106.43464029 58.46947691 -106.45348549 56.72603226 C-106.60186393 42.12166826 -105.46818308 26.58409935 -98.3125 13.5 C-97.8009436 12.5255896 -97.8009436 12.5255896 -97.27905273 11.53149414 C-78.88918332 -22.05599369 -24.08194628 -34.59139214 0 0 Z M-91.29296875 22.94140625 C-93.94864923 29.98806746 -95.15385394 36.55631147 -95.203125 44.09375 C-95.20819415 44.76767267 -95.21326331 45.44159533 -95.21848607 46.1359399 C-95.30619305 61.6953342 -95.11719076 77.21434121 -94.33087158 92.7537384 C-94.29836179 93.40002436 -94.26585199 94.04631031 -94.23235705 94.71218068 C-94.165175 96.04753647 -94.09794539 97.38288988 -94.03067033 98.71824099 C-93.99663475 99.39410525 -93.96259916 100.06996951 -93.9275322 100.76631451 C-93.89300106 101.45145275 -93.85846992 102.13659099 -93.82289238 102.84249099 C-91.81054635 143.04454604 -91.58023267 183.19197797 -91.65762477 223.43641908 C-91.67576665 233.14727064 -91.67661741 242.85810703 -91.67726317 252.5689728 C-91.67892955 269.9469624 -91.69447525 287.32490929 -91.71875 304.70288086 C-91.74202574 321.37899125 -91.75618363 338.05507466 -91.75976562 354.73120117 C-91.75998839 355.76074414 -91.76021116 356.79028711 -91.76044068 357.85102835 C-91.76088344 359.92666504 -91.76132547 362.00230173 -91.76176675 364.07793843 C-91.76198631 365.10303222 -91.76220588 366.12812601 -91.7624321 367.18428326 C-91.76275608 368.71926875 -91.76275608 368.71926875 -91.7630866 370.28526406 C-91.76682814 386.45100132 -91.77818018 402.61673454 -91.7905625 418.78246718 C-91.79492005 424.53893723 -91.79839713 430.29540691 -91.80117635 436.05187793 C-91.8189729 471.81157955 -91.8478219 507.56814795 -92.45800781 543.32348633 C-92.46801486 543.92155676 -92.47802192 544.51962719 -92.48833221 545.13582097 C-93.65435173 614.57591 -93.65435173 614.57591 -104.15234375 634.1484375 C-105.20812918 636.11522811 -105.20812918 636.11522811 -105 639 C-105.845625 639.226875 -106.69125 639.45375 -107.5625 639.6875 C-111.51984779 640.85088697 -113.27867595 643.29141606 -115.83203125 646.4140625 C-117.99264441 648.99122631 -120.25579249 651.41890508 -122.5715332 653.85522461 C-154.0497522 687.04585872 -171.22230313 725.3435003 -158 771 C-157.80164551 771.68771484 -157.60329102 772.37542969 -157.39892578 773.08398438 C-151.16370415 793.65971971 -138.45020047 810.99949176 -123.375 826 C-122.72103745 826.65264832 -122.72103745 826.65264832 -122.05386353 827.31848145 C-114.91905759 834.406319 -107.65390592 840.81612602 -99 846 C-98.40413086 846.35980957 -97.80826172 846.71961914 -97.19433594 847.09033203 C-56.96842908 870.92360054 -5.92694832 864.90906671 32.86328125 841.25390625 C68.97342326 817.23807018 78.94177921 776.9809443 74.5234375 735.8046875 C73.96694185 731.7851009 73.08688568 727.90683291 72 724 C71.81195801 723.29875 71.62391602 722.5975 71.43017578 721.875 C64.5451497 696.98593197 48.96121135 669.44726873 26 656 C25.34 656 24.68 656 24 656 C23.88785156 655.42507813 23.77570313 654.85015625 23.66015625 654.2578125 C22.73413143 651.09069804 20.9616229 649.96366353 18.4375 647.875 C-8.85508629 624.34792015 -12.17611025 589.58705255 -12.1328125 555.8515625 C-12.13349202 553.92296334 -12.13446728 551.99436426 -12.13571167 550.06576538 C-12.13718721 545.97547611 -12.1350578 541.8852086 -12.13037109 537.79492188 C-12.12498194 532.88242167 -12.12785249 527.96997943 -12.13381672 523.05748177 C-12.15551081 501.66138009 -12.04323768 480.26895712 -11.78393555 458.87451172 C-11.76285717 457.12357347 -11.74179297 455.37263505 -11.72074223 453.62169647 C-11.70469245 452.28757768 -11.70469245 452.28757768 -11.68831843 450.926507 C-11.13977102 405.27593005 -10.8771382 359.63014795 -10.76597118 313.97668791 C-10.7539821 309.05806206 -10.74139211 304.13943785 -10.72870636 299.22081375 C-10.64840725 267.98640254 -10.57648944 236.75197885 -10.51836468 205.51751839 C-10.49152415 191.19600145 -10.45716499 176.87451457 -10.41653961 162.55303013 C-10.39206436 153.82606153 -10.37357431 145.09912446 -10.363384 136.37212725 C-10.35594709 130.43639631 -10.34135307 124.50070928 -10.32131977 118.56500761 C-10.31005962 115.1633315 -10.30178587 111.76172565 -10.30232811 108.36002922 C-10.30242757 88.9769395 -10.03037267 69.72410317 -5.375 50.8125 C-2.4920321 37.99804003 1.43402559 17.67690261 -8.5 6.8125 C-10.89015442 4.70651621 -10.89015442 4.70651621 -14 5 C-14.08765625 4.41605469 -14.1753125 3.83210938 -14.265625 3.23046875 C-15.45208453 -0.37308652 -18.4552247 -1.1568301 -21.75 -2.6875 C-22.37132812 -2.99494141 -22.99265625 -3.30238281 -23.6328125 -3.61914062 C-49.35551893 -16.01922168 -80.25754266 -2.16335462 -91.29296875 22.94140625 Z " transform="translate(240,38)" style="fill: #FFFFFF;"/></svg>