<svg id="svg" version="1.1" xmlns="http://www.w3.org/2000/svg" style="display: block; background: rgb(0, 0, 0);" viewBox="0 0 425 612"><path d="M0 0 C1.32 0.66 2.64 1.32 4 2 C13.65463799 10.95791154 20.78228755 19.99738956 28 31 C29.27875 32.77375 30.5575 34.5475 31.875 36.375 C35.0715832 41.10594313 37.55201104 45.84633904 40 51 C41.2065625 53.2275 41.2065625 53.2275 42.4375 55.5 C71.63221737 118.16183239 59.48043078 189.61274917 19.37890625 244.3515625 C-4.49861462 277.20040624 -13.57858334 311.75719895 -21.9375 351.125 C-25.0134612 364.36095427 -28.8654607 375.42320038 -36 387 C-39.49936219 395.74840548 -38.84333431 397.15666569 -32 404 C-30.70518071 410.47409646 -30.22175557 417.33263335 -34 423 C-33.27776981 427.60604322 -33.27776981 427.60604322 -28 431 C-26.85881596 438.98828825 -28.0064021 442.3376014 -35 447 C-39.75261875 457.23523749 -39.75261875 457.23523749 -40 468 C-40 481.09152139 -50.20661764 487.65496323 -60 495 C-65.22729756 499.62414784 -70.36507609 504.33603594 -75.5 509.0625 C-80 513 -80 513 -82 513 C-82 513.66 -82 514.32 -82 515 C-110.1805939 530.54791388 -144.95296719 525.08824827 -161.9375 496.6875 C-162.89527344 495.10324219 -163.85304688 493.51898437 -164.83984375 491.88671875 C-169.74897356 483.05383599 -162.40261547 485.83135042 -155.125 485.9375 C-146.42107438 486.66712312 -146.42107438 486.66712312 -142 484 C-145.073125 483.87625 -148.14625 483.7525 -151.3125 483.625 C-173.57880384 482.5871638 -209.71139347 475.13418041 -200 446 C-200.12773185 441.04452625 -200.12773185 441.04452625 -201 436 C-201.24878906 434.2984375 -201.49757813 432.596875 -201.75390625 430.84375 C-202.02074219 429.0803125 -202.28757812 427.316875 -202.5625 425.5 C-206.26012472 398.39018708 -206.26012472 398.39018708 -198 386 C-203.81001357 333.70987786 -213.87382253 281.50955143 -242.0625 236.0625 C-246.15185654 229.01488554 -248.95773118 221.54933375 -252 214 C-253.32 211.36 -254.64 208.72 -256 206 C-262.10611788 190.20373853 -267.85751793 174.43184555 -272 158 C-272.680625 155.504375 -273.36125 153.00875 -274.0625 150.4375 C-277.57719775 135.1315582 -290.68916502 73.92229126 -271 69 C-267.3549761 78.11255976 -269.03934027 88.39922875 -269.22265625 98.1015625 C-268.81637325 114.33862702 -265.31429896 129.93942828 -261.625 145.6875 C-261.25117188 147.32783203 -260.87734375 148.96816406 -260.4921875 150.65820312 C-257.470264 163.68248644 -253.68241552 176.28923654 -249.1875 188.875 C-247 195 -247 195 -247 197 C-246.34 197 -245.68 197 -245 197 C-244.34 198.65 -243.68 200.3 -243 202 C-241.68 204.97 -240.36 207.94 -239 211 C-238.40703125 212.53398437 -237.8140625 214.06796875 -237.203125 215.6484375 C-234.38670941 222.48973068 -231.08272758 229.02026256 -227.75 235.625 C-226.41582031 238.27789062 -225.08164063 240.93078125 -223.70703125 243.6640625 C-221.62436273 247.78550769 -219.53992301 251.90606281 -217.44921875 256.0234375 C-203.05645264 284.4736043 -194.66430187 313.48276037 -189.125 344.75 C-188.6774939 347.26367188 -188.6774939 347.26367188 -188.22094727 349.828125 C-186.90914076 357.50714149 -185.98199761 364.80974012 -185.80859375 372.609375 C-184.39391498 383.79012122 -162.58517147 384.17034294 -158 375 C-153.5 375.125 -153.5 375.125 -147 376 C-144.03 376.28875 -141.06 376.5775 -138 376.875 C-130.93874343 377.75765707 -124.771397 378.97737492 -118 381 C-94.81340752 384.31237035 -67.20087391 383.49679476 -45 376 C-44.34 376 -43.68 376 -43 376 C-38.11761325 366.23522649 -36.35069246 358.06772034 -35.02734375 347.31640625 C-33.53597932 338.14706675 -30.85631838 329.43872944 -28.19140625 320.55078125 C-25.05707349 309.75102151 -22.47068446 298.83073843 -19.859375 287.89453125 C-14.53923282 268.16753346 -1.7563446 251.39781052 10 235 C56.72367732 169.25396041 58.77262616 78.94708396 2 18 C0.02 15.525 0.02 15.525 -2 13 C-7.4014818 8.38897895 -12.84732126 4.10570067 -18.6875 0.0625 C-23 -3 -23 -3 -23 -5 C-25.97 -5.99 -28.94 -6.98 -32 -8 C-36.67703063 -9.97564225 -41.34455393 -11.97401884 -46 -14 C-82.08101394 -28.43240558 -124.07039828 -33.24821201 -161 -19 C-164.403125 -17.7315625 -164.403125 -17.7315625 -167.875 -16.4375 C-178.71304618 -11.20861807 -186.21837994 -4.07855674 -194 5 C-197.65587516 7.35020546 -201.32349318 9.68220223 -205 12 C-208.37496131 14.95309114 -211.70790071 17.95480816 -215 21 C-216.85625 22.485 -218.7125 23.97 -220.625 25.5 C-279.39719875 74.70463151 -242.84174438 160.08651302 -211 213 C-209.700625 215.3821875 -209.700625 215.3821875 -208.375 217.8125 C-197.068156 239.40023577 -197.068156 239.40023577 -190 233 C-181.46639347 206.66772843 -160.74896463 202.87900793 -135.875 202.8125 C-133.45929688 202.79832031 -131.04359375 202.78414062 -128.5546875 202.76953125 C-90.02457748 204.12428482 -95.88899144 242.3295407 -103.56640625 269.5546875 C-104.97789295 274.91602935 -105.66281733 279.92071957 -106.125 285.4375 C-107 295 -107 295 -108 299 C-108.1172809 305.21588749 -108.17953431 311.31704832 -107.51953125 317.50390625 C-106.61469518 327.07611939 -106.5997394 336.69219013 -106.37890625 346.30078125 C-105.80800823 356.39449358 -90.54766788 370.54766788 -80 360 C-79.67051542 355.77361146 -79.38757066 351.54357277 -79.125 347.3125 C-77.18670888 320.31790538 -70.88184967 302.8582348 -49.8125 285.5625 C-31.8353769 268.76420464 -25.04295173 241.47295336 -17 219 C-16.05125 216.421875 -15.1025 213.84375 -14.125 211.1875 C2.41230343 162.56782791 19.38320429 99.07480644 -12 52 C-12.99 49.69 -13.98 47.38 -15 45 C-29.36424418 21.95039888 -48.88718073 7.05640964 -73 -5 C-73 -8.26575763 -15.0876896 3.31566156 9 66 C22.97857025 107.00380606 19.92746645 153.24010694 5.01171875 193.5546875 C2.59329478 200.10086812 0.3661858 206.70360791 -1.875 213.3125 C-5.67505251 224.35405287 -9.72080043 235.25612381 -14.046875 246.1015625 C-15.60362206 250.00588414 -17.09449608 253.93645289 -18.5625 257.875 C-24.4446805 272.65586382 -30.33772865 283.49310021 -41.66015625 294.5859375 C-61.05879308 313.73611889 -65.38696048 329.41897817 -66.4453125 356.78125 C-68.22834774 379.98582128 -82.56770261 374.15621531 -101 371 C-114.16924265 369.43398471 -127.463627 369.77644195 -140.70703125 369.671875 C-155.59305836 368.46584737 -155.76245679 362.28625244 -156.5625 348.9375 C-159.18829993 315.67736757 -170.53207098 285.17957562 -193 260 C-210.93278566 236.63303687 -228.2041986 212.60714259 -241 186 C-241.75410156 184.48277344 -242.50820312 182.96554688 -243.28515625 181.40234375 C-249.42238391 168.87174371 -253.81422649 156.31103553 -257.8125 142.9375 C-258.58337417 139.25901993 -258.58337417 139.25901993 -260 138 C-269.05009523 86.8880632 -261.89887025 26.94943512 -210 1 C-200.86234435 -6.31012452 -191.74301883 -13.63948269 -183.125 -21.5625 C-155.18524514 -44.84562905 0 -42.85311047 0 0 Z M-171 268 C-157.48648887 288.41402746 -144.85429877 316.8225237 -146.34375 341.75390625 C-147.40181519 363.60589142 -133.89340707 359.41334387 -117 357 C-116.59958488 351.22399189 -116.59958488 351.22399189 -117.5625 344.125 C-120.39747105 312.03070202 -118.4665028 282.10409405 -112.75 250.5 C-101.33778859 186.26684173 -213.71572012 215.27278298 -171 268 Z M-173 391 C-175.01609375 391.23976563 -177.0321875 391.47953125 -179.109375 391.7265625 C-189.55380935 392.53993775 -189.55380935 392.53993775 -198 398 C-193.64364793 398.59593433 -193.64364793 398.59593433 -187.77734375 398.42578125 C-184.46219727 398.41321289 -184.46219727 398.41321289 -181.08007812 398.40039062 C-178.72302734 398.37138672 -176.36597656 398.34238281 -173.9375 398.3125 C-170.4425293 398.29799805 -170.4425293 398.29799805 -166.87695312 398.28320312 C-150.5096105 400.07439276 -150.5096105 400.07439276 -144 388 C-153.71867401 388 -163.37500865 389.74806198 -173 391 Z M-74.125 398.5 C-83.66004393 399.01080592 -93.14883078 399.0446134 -102.6953125 398.9375 C-107.86364105 398.99839341 -112.86122383 399.47563508 -118 400 C-121.49911508 400.08904934 -124.99975582 400.13017788 -128.5 400.125 C-131.11421875 400.12886719 -131.11421875 400.12886719 -133.78125 400.1328125 C-139 400 -139 400 -143.984375 399.5 C-176.36682614 396.27184288 -193.32147552 395.24840143 -187.8125 431.18359375 C-186.9642174 438.30019536 -187.82886712 443.97320269 -189 451 C-180.17809076 449.23561815 -171.98602303 445.98277428 -163.9375 442 C-132.2580974 428.30079888 -92.63759569 425.75957572 -58.65234375 426.16015625 C-51.92861334 426.67375876 -51.92861334 426.67375876 -49 422 C-48.34 422 -47.68 422 -47 422 C-40.61526449 406.03816122 -59.1146886 412.83885173 -69 414 C-75.14580772 414.64607703 -81.29164268 415.29189496 -87.4375 415.9375 C-96.66271942 416.95043585 -156.81887239 424.0905638 -147 429 C-151.80260271 429 -172.93330659 426.28887106 -162 419 C-145.1209841 413.37366137 -128.57930293 410.4167781 -111 408 C-96.4062601 406.02226188 -96.4062601 406.02226188 -82 403 C-78.63030705 402.61671739 -75.25438766 402.28543848 -71.875 402 C-63.65930297 401.87309031 -63.65930297 401.87309031 -56 398 C-62.04396508 398 -68.09008786 398.16931988 -74.125 398.5 Z M-85 437 C-88.81304687 437.36738281 -88.81304687 437.36738281 -92.703125 437.7421875 C-137.49784503 440.39043674 -137.49784503 440.39043674 -177 456 C-168.94346947 454.95022848 -161.01096512 453.23120981 -153.0625 451.5625 C-151.09410156 451.15128906 -149.12570313 450.74007813 -147.09765625 450.31640625 C-143.03206001 449.43869585 -138.9770753 448.51030957 -134.93457031 447.53173828 C-123.30064111 444.96198501 -111.50873764 443.72786957 -99.6875 442.3125 C-97.05813477 441.99434326 -94.42876953 441.67618652 -91.71972656 441.34838867 C-74.9280196 439.41498975 -58.72993588 438.38839761 -41.828125 439.14453125 C-36.11787061 439.76044941 -36.11787061 439.76044941 -38 435 C-53.77706693 434.37722104 -69.30274624 435.45163143 -85 437 Z M-141.37109375 457.06640625 C-152.44049378 458.42103329 -163.54361568 459.27241476 -174.6640625 460.09375 C-196.97932253 463.28557511 -172.76005664 473.08291301 -163.875 475.25 C-153.85851605 476.79099753 -148.90402444 475.9878973 -141 470 C-134.75637505 465.83758337 -125.47523749 466.69267127 -118.0625 466.0625 C-101.73243873 464.65881946 -85.612491 462.84855596 -69.5 459.75 C-65 459 -65 459 -61 460 C-52.68181338 460.94524848 -43.0281606 459.91551821 -47 448 C-78.67486703 448 -110.06208786 452.76581057 -141.37109375 457.06640625 Z " transform="translate(314,69)" style="fill: #FFFFFF;"/></svg>