<svg id="svg" version="1.1" xmlns="http://www.w3.org/2000/svg" style="display: block; background: rgb(0, 0, 0);" viewBox="0 0 741 574"><path d="M0 0 C11.09815958 0.81532482 22.2371725 0.77903037 33.35974121 0.90377808 C41.02515016 0.99037758 48.69029302 1.09821433 56.35546875 1.203125 C57.61789776 1.22026204 57.61789776 1.22026204 58.90583038 1.23774529 C81.03965323 1.53880933 103.17271949 1.88617131 125.305336 2.2650919 C131.41541602 2.36960933 137.52551089 2.47180135 143.63574219 2.56710815 C188.82162273 3.27455577 188.82162273 3.27455577 208.9453125 4.45703125 C209.59865822 4.49452925 210.25200394 4.53202724 210.92514801 4.57066154 C227.46713349 5.54757837 244.34340241 7.27382301 260.4855957 11.06005859 C264.60479392 11.92613452 268.78748101 12.33796933 272.96484375 12.828125 C284.58372766 14.27578529 296.07360376 16.28144364 307.58244324 18.41217041 C312.84816261 19.38158181 318.12399545 20.28585707 323.40234375 21.18359375 C356.78435619 26.89244462 356.78435619 26.89244462 372.65234375 32.515625 C374.28645061 33.07468792 375.92058023 33.63368539 377.55513 34.19145203 C435.97253549 54.18323561 435.97253549 54.18323561 453.65234375 76.515625 C454.32523438 77.2890625 454.32523438 77.2890625 455.01171875 78.078125 C461.91468322 86.60030336 464.95143705 99.01224537 464.50390625 109.72265625 C464.46689601 111.12820761 464.43180011 112.53381045 464.3984375 113.93945312 C464.34307364 116.13269481 464.27756795 118.32312957 464.17919922 120.51489258 C463.76042338 130.24430516 463.91206991 135.76974611 471.65234375 142.515625 C477.57599365 151.3265459 481.09918473 160.38670943 476.65234375 170.515625 C476.33974885 171.88601869 476.05065657 173.26185941 475.77734375 174.640625 C475.06142539 178.03707487 474.09118741 181.1542181 472.83984375 184.390625 C470.01304588 191.89699088 468.10350537 199.65209952 466.17333984 207.42919922 C465.76163764 209.07793727 465.32974879 210.72163385 464.890625 212.36328125 C461.92025153 224.64503824 462.76267005 236.93574794 467.65234375 248.515625 C471.85271956 258.85501162 472.97360881 269.08955923 473.33984375 280.203125 C473.38689453 281.25951172 473.43394531 282.31589844 473.48242188 283.40429688 C474.06385354 299.25545844 472.06841574 314.27040027 469.15234375 329.828125 C468.82732619 331.60857832 468.50310329 333.3891769 468.1796875 335.16992188 C467.86920221 336.86471404 467.55803078 338.55938068 467.24609375 340.25390625 C467.10127563 341.04130692 466.95645752 341.82870758 466.80725098 342.63996887 C466.67040894 343.36890854 466.53356689 344.09784821 466.39257812 344.84887695 C466.27346069 345.48678665 466.15434326 346.12469635 466.03161621 346.78193665 C465.65234375 348.515625 465.65234375 348.515625 464.65234375 351.515625 C464.33180653 354.03621318 464.04429347 356.55191075 463.77734375 359.078125 C461.00996358 383.38612347 461.00996358 383.38612347 456.96484375 394.015625 C454.47873295 400.56821353 454.24781365 406.56014401 454.57348633 413.52734375 C454.87326292 420.19235179 454.87326292 420.19235179 452.65234375 423.515625 C452.34296875 424.155 452.03359375 424.794375 451.71484375 425.453125 C451.36421875 426.13375 451.01359375 426.814375 450.65234375 427.515625 C450.25273438 428.29164063 449.853125 429.06765625 449.44140625 429.8671875 C447.36915814 432.93483863 444.9460181 434.85120604 441.96484375 436.953125 C440.89048933 437.73158363 439.81627099 438.5102301 438.7421875 439.2890625 C437.95497314 439.85318848 437.95497314 439.85318848 437.15185547 440.42871094 C434.44287792 442.39230066 431.81563651 444.46445405 429.17578125 446.51953125 C427.65234375 447.515625 427.65234375 447.515625 425.65234375 447.515625 C425.65234375 448.175625 425.65234375 448.835625 425.65234375 449.515625 C415.24927148 460.2609036 397.1137891 465.72239334 383.65234375 471.515625 C382.81775635 471.88647217 381.98316895 472.25731934 381.12329102 472.6394043 C371.66484071 476.74117788 361.89966296 479.81343251 352.08984375 482.953125 C350.37810932 483.5054074 348.66651998 484.05813974 346.95507812 484.61132812 C342.70009432 485.98484977 338.44184186 487.34788438 334.18215942 488.70675659 C331.66225013 489.51245759 329.14440386 490.32437224 326.62670898 491.13696289 C317.42608996 494.09354761 308.24250445 496.83662596 298.83984375 499.078125 C298.24403503 499.22148285 297.64822632 499.3648407 297.03436279 499.51254272 C279.44107762 503.721464 261.56097257 506.57961 243.61843872 508.82807922 C240.56780886 509.21868108 237.6145708 509.68228386 234.65234375 510.515625 C230.44357969 511.69079938 226.14177009 512.16494391 221.80859375 512.64257812 C217.52197332 513.15266724 213.35039482 514.00265979 209.140625 514.9453125 C202.12269561 516.50005305 195.08484879 517.55332698 187.95581055 518.45092773 C185.95419821 518.70447348 183.95474755 518.97184037 181.95507812 519.24023438 C162.01364485 521.84732065 162.01364485 521.84732065 157.8527832 519.50073242 C151.95067902 516.85843903 145.00359795 518.86801104 138.97265625 520.26171875 C137.29106872 520.63306631 135.60908655 521.00263036 133.92675781 521.37060547 C133.06038696 521.56112488 132.19401611 521.75164429 131.3013916 521.94793701 C126.92902339 522.88493062 122.53769756 523.71780117 118.14453125 524.55078125 C116.37889781 524.88862775 114.61327282 525.22651848 112.84765625 525.56445312 C110.16717997 526.0761131 107.48638503 526.58584149 104.8046875 527.09106445 C102.14604149 527.5929078 99.48897348 528.10250471 96.83203125 528.61328125 C96.0412619 528.76023941 95.25049255 528.90719757 94.4357605 529.05860901 C88.29782568 530.24785374 82.1117135 531.7145111 76.53585815 534.61756897 C72.1323612 536.71714782 69.78325444 535.00143934 71.65234375 530.515625 C71.98234375 529.67 72.31234375 528.824375 72.65234375 527.953125 C77.67681818 521.82954679 87.39205459 521.83346869 94.75146484 520.796875 C98.33340765 520.26689836 101.89848889 519.64075293 105.46484375 519.015625 C106.15771484 518.89703125 106.85058594 518.7784375 107.56445312 518.65625 C110.84384237 518.07992944 114.07349998 517.43383665 117.296875 516.59765625 C123.31960575 515.05223951 129.4261282 513.89064484 135.52734375 512.703125 C136.19485657 512.57312103 136.86236938 512.44311707 137.55010986 512.30917358 C158.23945853 508.30792299 179.09222562 505.32773286 200.02734375 502.953125 C208.04199196 502.04199276 215.88552169 500.81302775 223.7746582 499.13647461 C230.59188344 497.69265921 237.43972494 496.49300461 244.31008911 495.33691406 C263.40440658 492.11613421 281.84408913 488.09256278 300.39892578 482.49072266 C303.78956243 481.47449853 307.186459 480.48219729 310.5859375 479.49609375 C322.35937029 476.07299241 334.03258514 472.50477483 345.54638672 468.27636719 C347.86663837 467.43821461 350.1970772 466.63448228 352.53125 465.8359375 C361.41671547 462.79129132 370.17738442 459.58831859 378.83178711 455.93432617 C382.75472978 454.27976769 386.68375617 452.76938985 390.71484375 451.390625 C394.63659736 449.99125864 397.95886363 448.31995603 401.41015625 446 C403.21609742 444.80442919 405.02825292 443.68929075 406.89453125 442.59375 C407.47219238 442.25118164 408.04985352 441.90861328 408.64501953 441.55566406 C409.7879927 440.87921703 410.93464614 440.20893729 412.08544922 439.54589844 C415.8104166 437.31204508 418.11301075 435.04377661 420.65234375 431.515625 C422.68262612 429.02391482 423.59121269 428.53396432 426.77734375 427.578125 C430.27727654 426.28467158 430.15405434 426.00365086 430.65234375 422.515625 C432.28214808 419.25601633 434.27573174 416.8598893 436.77734375 414.265625 C444.29350075 405.80393865 450.08032341 394.77762189 451.26171875 383.4921875 C451.80533868 379.34980367 453.00718231 375.47851867 454.24536133 371.49731445 C457.77151471 361.49456672 457.77151471 361.49456672 451.65234375 358.515625 C450.03494056 355.19689677 450.87271343 353.56677008 452.90234375 350.703125 C462.62009615 336.19379386 479.18452785 262.3573463 456.65234375 252.515625 C456.34498007 255.03263878 456.28352189 257.31755732 456.32421875 259.84375 C456.32609192 260.62192078 456.32796509 261.40009155 456.32989502 262.20184326 C456.33666493 263.8667014 456.35067524 265.53154237 456.37109375 267.19628906 C456.40168841 269.71174344 456.41200521 272.22656731 456.41796875 274.7421875 C456.45326279 281.89600751 456.57839883 288.94544216 457.42529297 296.05566406 C457.88076869 300.99047418 457.83830052 305.95099338 457.83764648 310.90332031 C457.83985707 312.77691606 457.85815961 314.64994334 457.87695312 316.5234375 C457.87988413 317.73437303 457.88187088 318.94531129 457.8828125 320.15625 C457.88692139 321.23422852 457.89103027 322.31220703 457.89526367 323.42285156 C457.40837265 329.6217817 456.19993877 337.61207424 448.65234375 334.515625 C448.46671875 333.278125 448.46671875 333.278125 448.27734375 332.015625 C447.390395 328.46783001 446.04186027 329.01037894 442.6953125 328.734375 C435.38193678 327.95129844 431.5264716 325.71785188 429.65234375 318.515625 C429.45769531 317.93039062 429.26304687 317.34515625 429.0625 316.7421875 C428.47881221 313.57359662 428.77103169 310.51600623 429.02734375 307.328125 C429.09308594 306.39516602 429.09308594 306.39516602 429.16015625 305.44335938 C429.25558649 304.14842409 429.36098764 302.85419252 429.4753418 301.56079102 C429.59596546 300.16704694 429.69554495 298.77135919 429.77661133 297.37475586 C430.24613442 291.20028944 432.11594271 286.09712223 434.58984375 280.453125 C434.95013672 279.58751953 435.31042969 278.72191406 435.68164062 277.83007812 C438.38783482 271.515625 438.38783482 271.515625 440.65234375 271.515625 C440.92487328 268.27252363 441.01916114 265.07107356 441.04296875 261.81835938 C441.16900754 258.01969033 441.50293317 255.3783085 443.5703125 252.14453125 C446.37678702 247.74541391 446.89249702 243.11246289 447.58984375 238.015625 C447.81510742 236.61957031 447.81510742 236.61957031 448.04492188 235.1953125 C448.53774229 231.80310703 448.9218184 224.35273917 444.67260742 231.06274414 C444.3913501 231.71879639 444.11009277 232.37484863 443.8203125 233.05078125 C443.33981445 234.13540649 443.33981445 234.13540649 442.84960938 235.24194336 C442.51638672 236.0128833 442.18316406 236.78382324 441.83984375 237.578125 C439.00715743 243.85003949 436.13170195 249.25577256 431.65234375 254.515625 C431.059375 255.31097656 430.46640625 256.10632813 429.85546875 256.92578125 C425.5515124 262.63282737 369.66734327 302.001342 375.08984375 271.015625 C376.7144385 268.4162734 378.28326577 267.10444337 380.90625 265.55078125 C382.68381405 264.534755 382.68381405 264.534755 384.3671875 263.26171875 C391.06222031 258.51999361 398.56350756 257.44404093 406.5 255.99609375 C411.42647345 255.08213261 415.26257425 253.92999822 419.65234375 251.515625 C420.31234375 251.515625 420.97234375 251.515625 421.65234375 251.515625 C422.34931064 250.19787716 423.01112434 248.86138125 423.65234375 247.515625 C424.55439985 246.3911962 425.49393057 245.29600754 426.46484375 244.23046875 C435.15183496 234.31791598 440.78708824 222.92421635 444.96679688 210.52441406 C446.12808066 207.12162099 447.389253 203.75670093 448.65234375 200.390625 C449.02625244 199.39289063 449.02625244 199.39289063 449.40771484 198.375 C453.3652402 187.89693157 457.87312643 177.79135232 463.02490234 167.84375 C466.21061863 161.63874716 471.49564449 142.515625 459.65234375 142.515625 C458.18891194 145.01565435 457.03355283 147.4264562 456.078125 150.15625 C453.08516462 158.31540313 446.30041596 164.2257852 439.77734375 169.69140625 C438.23470516 171.01569342 436.73999584 172.3964609 435.27734375 173.80859375 C429.70029575 179.15036004 424.92816844 182.08675177 417.65234375 184.515625 C415.64388292 185.26413627 413.64402203 186.03603811 411.65234375 186.828125 C410.74484375 187.17488281 409.83734375 187.52164063 408.90234375 187.87890625 C406.01764928 189.17592236 403.60707513 190.94161258 401.0546875 192.80078125 C395.43949585 196.81756054 389.45135044 199.74940363 383.21484375 202.640625 C382.14869583 203.14369983 381.08293918 203.64760471 380.01757812 204.15234375 C353.35633737 216.74569629 353.35633737 216.74569629 342.27734375 216.578125 C330.73095901 216.41439082 322.87181821 217.8828768 313.12890625 224.28125 C309.45132747 226.68785417 305.64818304 228.81262591 301.77734375 230.890625 C301.17116211 231.22400879 300.56498047 231.55739258 299.94042969 231.90087891 C296.91037085 233.51896024 294.11032885 234.72587016 290.76953125 235.5546875 C288.13495074 236.36685142 283.50129465 239.5201394 289.37890625 239.51171875 C290.68087086 239.34377848 291.98034233 239.15586394 293.27734375 238.953125 C294.30154419 238.80302979 294.30154419 238.80302979 295.34643555 238.64990234 C302.73351691 237.48050228 310.0411582 235.62887246 316.85888672 232.50439453 C323.44763723 229.56487858 328.9812583 228.95699882 336.15234375 229.140625 C337.63347656 229.14255859 337.63347656 229.14255859 339.14453125 229.14453125 C359.94559744 229.40098275 342.1721071 250.79819864 335.71484375 259.078125 C334.33050214 260.87091847 332.94638417 262.66388465 331.5625 264.45703125 C330.90137207 265.30668457 330.24024414 266.15633789 329.55908203 267.03173828 C327.26607194 270.01881699 325.05861068 273.06356592 322.87670898 276.13256836 C321.65234375 277.515625 321.65234375 277.515625 319.65234375 277.515625 C319.38421875 278.093125 319.11609375 278.670625 318.83984375 279.265625 C317.29620251 282.19041893 315.26737148 283.50874325 312.65234375 285.515625 C311.88148438 286.30839844 311.110625 287.10117187 310.31640625 287.91796875 C292.18466068 306.19699082 259.33685782 314.07086791 235.65234375 322.515625 C234.60203979 322.89065155 234.60203979 322.89065155 233.53051758 323.27325439 C228.93135218 324.91325328 224.32564562 326.53365806 219.71484375 328.140625 C219.13231842 328.34495148 218.54979309 328.54927795 217.94961548 328.75979614 C182.56706954 341.12982768 145.68385619 341.53857902 110.65234375 327.515625 C109.66621094 327.13535156 108.68007813 326.75507813 107.6640625 326.36328125 C100.88401918 323.66677101 94.77548218 320.46995715 88.65234375 316.515625 C87.69457031 315.91878906 86.73679687 315.32195312 85.75 314.70703125 C79.32764629 310.63746214 73.69437231 306.10184288 68.171875 300.8828125 C66.02884761 298.86936351 63.84276513 296.96534171 61.58984375 295.078125 C53.02040733 287.56685785 46.09988622 278.70778056 39.29418945 269.61767578 C29.84691048 257.01245391 19.78471617 246.91145343 3.65625 243.91015625 C1.65234375 243.515625 1.65234375 243.515625 -1.16015625 242.515625 C-4.09370691 241.59529538 -6.81791693 241.06240302 -9.84765625 240.578125 C-14.60609386 239.80697117 -19.36083142 239.0351301 -24.09765625 238.140625 C-24.71833984 238.03886963 -25.33902344 237.93711426 -25.97851562 237.83227539 C-39.29691967 235.21186058 -22.26535237 229.33022701 -17.72265625 228.578125 C-11.51617226 228.1043476 -6.04116358 230.06045508 -0.22705078 231.93945312 C2.31652951 232.71924651 4.88948718 233.34314974 7.47314453 233.97460938 C27.37670384 238.9114578 38.74986526 251.20969449 49.15234375 268.140625 C52.73328756 273.9034462 56.96497281 278.63331614 61.65234375 283.515625 C62.13832031 284.02996094 62.62429688 284.54429687 63.125 285.07421875 C65.20246058 287.21847871 67.39731486 289.1420009 69.71484375 291.015625 C71.65634255 292.59034191 72.89295916 293.84217448 74.40234375 295.890625 C81.13657439 303.74722742 91.67544163 308.59886068 100.65234375 313.515625 C101.48378906 313.9796875 102.31523437 314.44375 103.171875 314.921875 C119.53651445 323.61994571 139.13530979 328.90017445 157.65234375 329.515625 C158.750625 329.55558594 159.84890625 329.59554688 160.98046875 329.63671875 C175.36681669 329.97938991 189.83965807 328.78626155 203.53564453 324.21972656 C206.06660314 323.37782522 208.60757904 322.56933817 211.1484375 321.7578125 C221.77151101 318.32568969 232.21865279 314.61933029 242.54736328 310.38256836 C248.49236231 307.94888324 254.48460645 305.73274205 260.57202148 303.68115234 C271.07625211 300.09619243 281.01058422 295.52077174 290.77734375 290.265625 C291.78410156 289.74355469 292.79085937 289.22148437 293.828125 288.68359375 C303.39544979 283.5471904 310.9056234 276.81882816 318.15234375 268.765625 C318.60246826 268.26885254 319.05259277 267.77208008 319.51635742 267.26025391 C323.64979056 262.63225278 347.87209332 232.69261634 334.65234375 236.515625 C333.6571875 236.72960937 332.66203125 236.94359375 331.63671875 237.1640625 C324.29487825 238.81331653 317.03981793 240.54126162 310.15234375 243.640625 C294.04055952 249.27974948 269.87092828 246.45199732 254.37109375 240.19702148 C250.20673176 238.55459021 246.84922338 238.10796432 242.421875 238.6328125 C240.65234375 238.515625 240.65234375 238.515625 239.1953125 237.01953125 C235.13220242 233.05928472 226.87970503 236.67888138 222.27734375 238.453125 C213.56203313 241.80048592 204.9239388 242.6973435 195.65234375 242.890625 C194.92192871 242.91672852 194.19151367 242.94283203 193.43896484 242.96972656 C187.55685556 242.98888207 183.9916498 241.56937946 183.27734375 235.140625 C182.34194909 231.21196742 181.6640345 232.710948 178.55859375 233.87548828 C150.78418233 243.20239744 112.62322805 239.39698331 84.15234375 235.703125 C83.50997772 235.62053436 82.86761169 235.53794373 82.20578003 235.45285034 C75.82830282 234.60216694 69.75443738 233.42062152 63.68798828 231.23168945 C46.01538394 225.01512091 26.09216651 225.0402988 7.58721924 223.66088867 C-30.43369233 220.80641186 -67.9254061 214.89726088 -104.29296875 203.30859375 C-106.76889734 202.52142595 -109.24547078 201.73632843 -111.72265625 200.953125 C-112.33695496 200.75875854 -112.95125366 200.56439209 -113.58416748 200.36413574 C-131.24991482 194.80322426 -149.12590601 190.3401384 -167.72265625 190.328125 C-168.71265625 190.31587891 -169.70265625 190.30363281 -170.72265625 190.29101562 C-179.33915568 190.2739645 -186.7652721 191.58579453 -194.66015625 195.015625 C-195.64628906 195.4384375 -196.63242188 195.86125 -197.6484375 196.296875 C-198.98455078 196.90015625 -198.98455078 196.90015625 -200.34765625 197.515625 C-201.08371094 197.8146875 -201.81976563 198.11375 -202.578125 198.421875 C-204.85666538 199.83024433 -205.33239174 201.05623426 -206.34765625 203.515625 C-206.74984375 204.32257813 -207.15203125 205.12953125 -207.56640625 205.9609375 C-210.17270799 211.41192223 -212.01889722 216.45046936 -212.98828125 222.421875 C-213.34765625 224.515625 -213.34765625 224.515625 -214.34765625 227.515625 C-215.4540488 244.77534875 -214.68831644 261.74171746 -210.34765625 278.515625 C-210.13866699 279.34755371 -209.92967773 280.17948242 -209.71435547 281.03662109 C-204.59242507 301.09847432 -198.24639423 321.18216197 -187.33056641 338.87109375 C-185.87229706 341.3109602 -184.62683046 343.85341995 -183.34765625 346.390625 C-180.18790416 352.2287265 -175.89294115 356.73069415 -171.34765625 361.515625 C-170.1747354 362.88529386 -169.00762317 364.25996832 -167.84765625 365.640625 C-159.84523647 374.74745113 -149.96787611 381.79037533 -140.31738281 389.03369141 C-138.67136525 390.27208092 -137.034888 391.52131735 -135.40234375 392.77734375 C-121.8158494 403.01915065 -107.15177198 410.36986488 -91.34765625 416.515625 C-90.14360585 416.99230887 -88.93984659 417.46972861 -87.73632812 417.94775391 C-71.17968841 424.50839424 -54.94713557 430.38753083 -37.34765625 433.515625 C-36.11474854 433.74451416 -36.11474854 433.74451416 -34.85693359 433.97802734 C-19.75691976 436.76723996 -5.00189169 437.75483744 10.33984375 437.765625 C11.20339478 437.76629974 12.0669458 437.76697449 12.95666504 437.76766968 C33.80862363 437.74185922 53.67566644 435.82116358 73.65234375 429.515625 C74.31041016 429.31130859 74.96847656 429.10699219 75.64648438 428.89648438 C95.37523911 422.60007329 113.14592527 411.51655239 130.25585938 400.09716797 C140.3285967 393.44973598 150.46891617 387.11487011 161.65234375 382.515625 C162.79554455 382.01199597 163.93739202 381.50528776 165.078125 380.99609375 C171.0869896 378.33134227 177.01766409 375.90120603 183.37109375 374.15625 C185.72977806 373.52422488 185.72977806 373.52422488 188.28125 372.5625 C192.77638512 371.05611394 197.42646488 370.31195279 202.08984375 369.515625 C203.12101318 369.33902344 204.15218262 369.16242188 205.21459961 368.98046875 C215.2754977 367.37512489 225.35129813 366.7436825 235.52709961 366.375 C243.41445262 366.03960911 250.47763904 364.72000816 258.0559082 362.52734375 C263.36774938 360.99440522 268.78175515 360.01538143 274.21484375 359.015625 C275.31892578 358.8084082 276.42300781 358.60119141 277.56054688 358.38769531 C279.82126516 357.96470132 282.08249382 357.54442541 284.34423828 357.12695312 C287.52001781 356.54007844 290.69372261 355.94299605 293.8671875 355.34375 C295.79545811 354.98375951 297.72383819 354.62435471 299.65234375 354.265625 C300.51674072 354.10255859 301.3811377 353.93949219 302.27172852 353.77148438 C307.40502083 352.83115605 312.40144572 352.25962631 317.62109375 352.06347656 C320.41605289 351.30964383 320.52709096 350.0805128 321.65234375 347.515625 C323.06591797 346.46655273 323.06591797 346.46655273 324.70703125 345.69921875 C325.61980835 345.26778564 325.61980835 345.26778564 326.55102539 344.82763672 C327.20321045 344.53904785 327.85539551 344.25045898 328.52734375 343.953125 C329.53945923 343.49317139 329.53945923 343.49317139 330.57202148 343.02392578 C335.48523432 340.86102198 340.34488227 339.40122646 345.59765625 338.26953125 C349.80932874 337.23007755 353.81016665 335.72123359 357.84594727 334.14013672 C363.86528918 331.85714952 374.93045677 332.88142101 366.21484375 340.703125 C365.36921875 341.30125 364.52359375 341.899375 363.65234375 342.515625 C363.32234375 343.175625 362.99234375 343.835625 362.65234375 344.515625 C358.05050704 346.72067176 353.33525155 348.33423373 348.47265625 349.8671875 C346.65803906 350.36698851 346.65803906 350.36698851 345.65234375 351.515625 C342.48559601 351.79821014 339.319075 351.96442827 336.14453125 352.13671875 C329.11956408 353.20477802 339.61164379 355.63952062 341.77734375 356.015625 C343.09298654 356.25223269 344.40809916 356.49180792 345.72265625 356.734375 C346.30805176 356.83685547 346.89344727 356.93933594 347.49658203 357.04492188 C349.65234375 357.515625 349.65234375 357.515625 352.84301758 358.50854492 C357.03457613 359.72301716 361.19350241 360.07398944 365.53125 360.41015625 C367.26471486 360.55928858 368.99811106 360.70922055 370.73144531 360.85986328 C371.62802856 360.93593811 372.52461182 361.01201294 373.44836426 361.09039307 C388.50967269 362.38465676 402.92314668 364.12332569 417.56005859 368.00341797 C421.68811292 369.0139965 425.88064443 369.53838669 430.09375 370.05859375 C432.65234375 370.515625 432.65234375 370.515625 435.3046875 371.62890625 C438.67113915 372.90042792 440.18930306 372.52341943 441.71484375 369.203125 C443.46982265 366.04416297 443.78026139 369.30976963 444.65234375 371.515625 C444.91402344 372.01835937 445.17570313 372.52109375 445.4453125 373.0390625 C453.2117588 388.57195511 440.64248502 396.72460315 429.35498047 405.22119141 C427.01618023 406.99926982 424.74292133 408.84785862 422.46484375 410.703125 C413.4851091 417.8845684 404.22935543 424.18418223 394.33984375 430.015625 C393.23284397 430.67268439 392.12599318 431.32999485 391.01928711 431.98754883 C388.86444165 433.26598215 386.70733472 434.54045195 384.54785156 435.81103516 C382.11796789 437.24151136 379.69315804 438.68006553 377.26953125 440.12109375 C361.32277662 449.515625 361.32277662 449.515625 355.65234375 449.515625 C355.65234375 450.175625 355.65234375 450.835625 355.65234375 451.515625 C353.68150291 452.55258088 351.77027138 453.42540602 349.71484375 454.265625 C349.0916626 454.52585449 348.46848145 454.78608398 347.82641602 455.05419922 C340.2125668 458.18240624 332.45415978 460.89845123 324.65234375 463.515625 C324.06565918 463.71430176 323.47897461 463.91297852 322.87451172 464.11767578 C308.74737607 468.85712869 294.14261187 471.09036033 279.40234375 472.953125 C278.57186523 473.05923096 277.74138672 473.16533691 276.88574219 473.2746582 C259.25628406 475.49067912 241.57484653 476.64669997 223.85037231 477.75308228 C206.46380395 478.83957023 189.1608687 480.23903526 171.83984375 482.140625 C156.38758362 483.83251251 140.997742 485.25036289 125.47979736 486.14892578 C120.13762709 486.46714782 114.80381336 486.87737812 109.46875 487.296875 C108.58009247 487.3662326 107.69143494 487.43559021 106.77584839 487.50704956 C103.23615277 487.78378133 99.69651826 488.06074796 96.15771484 488.34869385 C80.30264505 489.63670483 65.0436961 489.82433782 49.21484375 488.203125 C48.53580994 488.13593262 47.85677612 488.06874023 47.15716553 487.99951172 C39.20146927 487.20933602 31.3227531 486.30911541 23.49731445 484.63476562 C18.71307464 483.63444206 13.9352563 483.06468801 9.07641602 482.54394531 C-12.1237756 480.267546 -32.63696861 475.3139945 -53.26000977 470.05175781 C-60.34778712 468.24518007 -67.4520888 466.57709742 -74.59765625 465.015625 C-85.43408672 462.62071801 -96.03962484 459.54911302 -106.65478516 456.32373047 C-109.06025409 455.6018717 -111.47146485 454.91247342 -113.890625 454.23828125 C-130.83631976 449.41961932 -143.6649201 440.78017932 -156.57421875 428.9296875 C-160.26393891 425.63811896 -164.24547554 422.70774683 -168.23339844 419.78979492 C-172.34765625 416.72639435 -172.34765625 416.72639435 -172.34765625 414.515625 C-173.00765625 414.515625 -173.66765625 414.515625 -174.34765625 414.515625 C-179.74496019 409.12931354 -183.93238643 403.00092171 -187.34765625 396.203125 C-187.63793701 395.62933105 -187.92821777 395.05553711 -188.22729492 394.46435547 C-192.15767617 386.2567597 -192.80843658 375.9493602 -190.28515625 367.203125 C-188.6604275 361.45134805 -189.26910201 357.61040887 -192.97265625 353.015625 C-197.67585509 347.15902263 -200.36850668 340.35332095 -203.34765625 333.515625 C-203.83951416 332.401875 -203.83951416 332.401875 -204.34130859 331.265625 C-212.21488712 313.38108403 -218.08775261 295.80611388 -221.34765625 276.515625 C-221.4986377 275.66548828 -221.64961914 274.81535156 -221.80517578 273.93945312 C-227.95642588 238.66432311 -229.95832013 189.01809289 -186.34765625 179.515625 C-185.54714844 179.31066406 -184.74664062 179.10570312 -183.921875 178.89453125 C-157.20714637 172.55470203 -127.65773905 181.80783291 -102.31640625 189.6875 C-92.99115463 192.57153477 -83.58158779 195.15334683 -74.16796875 197.73095703 C-71.71868424 198.41239751 -69.28247165 199.12447076 -66.84765625 199.85546875 C-44.69216373 206.34074927 -21.13681589 209.11625432 1.78540039 211.33032227 C12.41881986 212.39667127 22.96540986 213.95900588 33.52734375 215.578125 C34.81871246 215.77341797 34.81871246 215.77341797 36.13616943 215.97265625 C38.59832398 216.34650205 41.05909115 216.72832965 43.51953125 217.11328125 C44.25268555 217.22466934 44.98583984 217.33605743 45.74121094 217.45082092 C49.88844716 218.11339122 53.67876475 219.11082078 57.65234375 220.515625 C78.99872511 225.93758165 100.85182328 228.02447507 122.81591797 227.85180664 C126.04680033 227.82798152 129.27686287 227.83131078 132.5078125 227.83789062 C143.18239444 227.82252485 153.59823223 227.41337476 164.17578125 225.96362305 C168.91786536 225.31660637 173.66204956 225.21582214 178.44335938 225.30078125 C183.1945188 225.17485857 184.60200869 223.96122487 186.77758789 220.05273438 C196.45953983 203.03973705 220.29863825 204.06760616 236.984375 204.07983398 C248.99407532 204.06091114 259.41565042 202.81207624 270.48828125 197.88671875 C274.36636913 196.206214 278.1402782 195.37232235 282.27734375 194.578125 C283.54324341 194.32663696 283.54324341 194.32663696 284.8347168 194.07006836 C292.04348875 192.69528877 299.28334922 191.74987693 306.55892944 190.82284546 C321.78180773 188.8682194 334.3029819 185.45070973 347.96289062 178.38769531 C352.40768866 176.09143357 356.82356924 174.24224368 361.56640625 172.6328125 C365.72681035 171.12664089 369.77256152 169.38023357 373.83984375 167.640625 C379.93781587 165.0386628 386.05549585 162.55612629 392.27734375 160.265625 C397.83548974 158.21350113 403.32234391 156.11816399 408.65234375 153.515625 C409.37421875 153.17273438 410.09609375 152.82984375 410.83984375 152.4765625 C416.41819337 149.62927988 420.7362271 145.93493571 425.1953125 141.6015625 C428.20696134 139.04477318 431.5511089 136.515625 435.65234375 136.515625 C435.88013819 134.87378586 436.10091972 133.23072659 436.29003906 131.58398438 C436.93093655 127.92516798 438.56175948 124.65881625 440.02734375 121.265625 C442.46219726 115.34860252 451.95433815 88.60851753 444.27734375 85.578125 C440.06647261 83.87372478 439.65234375 79.81614562 439.65234375 75.515625 C437.91770269 74.47357604 437.91770269 74.47357604 435.65234375 73.515625 C434.79753418 73.09812988 433.94272461 72.68063477 433.06201172 72.25048828 C430.44886732 70.98349593 427.83450074 69.71911857 425.21875 68.45751953 C424.10125777 67.91780692 422.98438272 67.37681433 421.86816406 66.83447266 C415.77663813 63.87547327 409.68129973 61.01704801 403.36181641 58.5690918 C401.31252219 57.77230818 399.27688365 56.9563591 397.24365234 56.12036133 C388.96302868 52.72806168 380.62050255 49.68967342 372.10009766 46.95532227 C370.14928379 46.32713966 368.20362628 45.6844958 366.2578125 45.04101562 C358.18504126 42.40871288 350.15507308 40.4230533 341.80413818 38.90762329 C334.86262134 37.64306814 327.93491897 36.30065117 321.00366211 34.98120117 C319.11819402 34.62417872 317.23210469 34.270424 315.34545898 33.91967773 C312.59313139 33.40710709 309.84333428 32.88252927 307.09375 32.35546875 C306.24398087 32.20021225 305.39421173 32.04495575 304.51869202 31.88499451 C303.36003883 31.65949669 303.36003883 31.65949669 302.17797852 31.42944336 C301.49486099 31.30081406 300.81174347 31.17218475 300.10792542 31.03965759 C298.65234375 30.515625 298.65234375 30.515625 298.65234375 28.515625 C296.25660274 28.29320873 293.92928324 28.19121977 291.52734375 28.140625 C285.72668282 27.93287371 280.19641347 27.33356985 274.51452637 26.14936829 C260.14928784 23.15649668 245.7509608 22.29493708 231.14129639 21.44500732 C225.84114445 21.13353984 220.54252544 20.7965691 215.24369812 20.46347618 C213.4171092 20.35050229 211.59027772 20.2427612 209.76330566 20.13618469 C208.09866272 20.03553963 208.09866272 20.03553963 206.40039062 19.93286133 C205.43194214 19.87608719 204.46349365 19.81931305 203.46569824 19.76081848 C200.65234375 19.515625 200.65234375 19.515625 197.86230469 19.02418518 C193.75933462 18.37414387 189.69135126 18.15593095 185.54492188 17.96142578 C184.66803963 17.91931536 183.79115738 17.87720493 182.88770294 17.83381844 C173.3819282 17.41065933 163.88460275 17.37038378 154.37109375 17.3828125 C152.4970295 17.38213553 150.62296533 17.38116228 148.74890137 17.37991333 C144.85651803 17.37845479 140.96415794 17.38053062 137.07177734 17.38525391 C132.14413349 17.39095002 127.21654415 17.38766099 122.28890228 17.38168144 C118.42958178 17.37802544 114.57027368 17.37923724 110.71095276 17.38180923 C108.89653008 17.38246466 107.08210618 17.38170009 105.26768494 17.37932968 C88.2616416 17.36197454 71.26459861 17.67971671 54.41259766 20.13525391 C52.62286442 20.39490175 50.83135817 20.63764498 49.0390625 20.87890625 C43.51295665 21.64566941 38.1158593 22.58834146 32.71484375 24.0234375 C20.56530931 27.17792324 8.45885872 27.77342 -4.04040527 27.92318726 C-16.61983109 28.08210675 -28.8939985 28.5171613 -41.31665039 30.67553711 C-42.11578857 30.8122583 -42.91492676 30.94897949 -43.73828125 31.08984375 C-44.41922852 31.21963623 -45.10017578 31.34942871 -45.80175781 31.4831543 C-53.25905091 31.63979043 -42.5931419 24.80961447 -40.67236328 24.14941406 C-36.58277757 23.03446295 -32.50278593 22.69335382 -28.28515625 22.390625 C-27.29451172 22.31134766 -26.30386719 22.23207031 -25.28320312 22.15039062 C-18.22607293 21.64241159 -11.17462268 21.40362464 -4.1015625 21.2421875 C-3.21637436 21.22187469 -2.33118622 21.20156189 -1.41917419 21.18063354 C3.05386668 21.08245542 7.5264981 21.00246881 12.00024414 20.94482422 C13.65511112 20.91636705 15.30997768 20.88788512 16.96484375 20.859375 C18.13030983 20.85159531 18.13030983 20.85159531 19.31932068 20.84365845 C23.39616546 21.40280086 23.39616546 21.40280086 24.65234375 18.515625 C22.62813061 18.15235615 22.62813061 18.15235615 20.0859375 18.13671875 C19.12494141 18.10255859 18.16394531 18.06839844 17.17382812 18.03320312 C16.15611328 18.00677734 15.13839844 17.98035156 14.08984375 17.953125 C12.10927333 17.89256104 10.12879697 17.82882728 8.1484375 17.76171875 C7.26341553 17.73779053 6.37839355 17.7138623 5.46655273 17.68920898 C2.75428707 17.52191299 0.11676745 17.14442899 -2.56861877 16.7407074 C-7.99481696 16.05418915 -13.56974896 16.32236444 -19.03515625 16.328125 C-19.73784637 16.3273999 -20.4405365 16.3266748 -21.16452026 16.32592773 C-31.12366806 16.32705266 -40.98491594 16.71228931 -50.91015625 17.515625 C-59.77075942 18.23209202 -68.58108354 18.755249 -77.47265625 18.828125 C-78.93167358 18.85422852 -78.93167358 18.85422852 -80.42016602 18.88085938 C-81.30631592 18.88021484 -82.19246582 18.87957031 -83.10546875 18.87890625 C-84.26780029 18.88337769 -84.26780029 18.88337769 -85.45361328 18.88793945 C-94.63801014 17.08255079 -83.85346445 10.45432324 -79.8984375 9.62109375 C-79.22401611 9.47269043 -78.54959473 9.32428711 -77.85473633 9.17138672 C-77.1305249 9.01686035 -76.40631348 8.86233398 -75.66015625 8.703125 C-70.51243811 7.56865069 -65.52798898 6.30135922 -60.55493164 4.55078125 C-41.61449259 -2.04823269 -19.78923451 -1.54948301 0 0 Z M449.65234375 113.515625 C449.42514648 114.134375 449.19794922 114.753125 448.96386719 115.390625 C448.29239135 117.25770362 447.65594114 119.13371307 447.02734375 121.015625 C446.7025 121.95341797 446.7025 121.95341797 446.37109375 122.91015625 C445.32722489 126.02243194 444.54247119 128.93549767 444.18359375 132.203125 C442.79963762 140.83249854 435.56180501 145.64451347 428.4921875 149.82421875 C425.68732255 151.49479169 423.05476888 153.30161475 420.40234375 155.203125 C414.08122239 159.6348345 408.79141728 162.57967103 401.32714844 164.73950195 C389.39163026 168.28442432 377.85279702 173.24711682 366.83984375 179.01953125 C361.95102429 181.43330524 356.72386243 183.08049941 351.59423828 184.90161133 C346.10912101 186.88384579 341.16784361 189.12632696 336.171875 192.15625 C328.78416935 196.14217491 321.1866282 197.45540297 312.96484375 198.828125 C298.68619449 201.31235479 284.88615085 204.92670183 271.21484375 209.765625 C259.86378281 213.57566078 248.34946294 213.71078982 236.49057007 214.06970215 C229.43024317 214.28529944 222.41533829 214.56345504 215.40234375 215.453125 C214.50249756 215.56527344 214.50249756 215.56527344 213.58447266 215.6796875 C211.93316798 215.91144956 210.2920741 216.21263135 208.65234375 216.515625 C208.06364502 216.62156982 207.47494629 216.72751465 206.8684082 216.83666992 C201.96321946 217.93813247 199.49793269 220.13855143 196.33984375 223.953125 C195.91123047 224.44361328 195.48261719 224.93410156 195.04101562 225.43945312 C185.92430434 235.97842826 191.25192671 240.8732312 203.83984375 238.953125 C204.48985352 238.85942627 205.13986328 238.76572754 205.80957031 238.66918945 C213.21748699 237.46082517 219.7669506 234.56115387 226.3828125 231.078125 C237.02181491 225.67418727 245.77906827 225.7045528 255.95703125 231.98046875 C265.96620208 237.68134431 275.17725887 237.7978448 285.21484375 232.828125 C285.94380859 232.48845703 286.67277344 232.14878906 287.42382812 231.79882812 C297.42526246 227.22951156 297.42526246 227.22951156 298.65234375 217.515625 C299.51859375 217.680625 300.38484375 217.845625 301.27734375 218.015625 C305.0747869 218.6269814 305.0747869 218.6269814 306.984375 215.72265625 C314.80721697 205.68519521 330.92927331 206.90305886 342.48852539 206.9675293 C352.16131468 206.91680853 360.7267631 205.57371911 367.9609375 198.79296875 C371.04789581 196.46170924 374.71854682 195.3122014 378.29296875 193.8984375 C381.9164405 192.4426166 385.41043013 190.76064388 388.90234375 189.015625 C389.80025635 188.56884399 389.80025635 188.56884399 390.71630859 188.11303711 C393.90409442 186.49698833 396.84865414 184.76292952 399.77734375 182.703125 C404.85991572 179.35874864 411.78282757 178.19374843 417.8125 178.6953125 C420.53912125 178.42901828 421.20271142 177.08341819 422.83984375 174.953125 C425.93474334 171.21045573 429.17266298 168.41148565 433.0390625 165.5 C436.27387678 163.04366868 439.44635761 160.52494982 442.58984375 157.953125 C443.15783691 157.50606201 443.72583008 157.05899902 444.31103516 156.59838867 C447.99241777 153.5583329 449.45572094 151.26472177 450.65234375 146.515625 C451.65803893 143.99189936 452.70090975 141.48640885 453.75 138.98046875 C456.10971422 132.53466931 455.87052125 126.04381696 455.90234375 119.265625 C455.92296875 118.151875 455.94359375 117.038125 455.96484375 115.890625 C455.97 114.83359375 455.97515625 113.7765625 455.98046875 112.6875 C455.9944873 111.2348877 455.9944873 111.2348877 456.00878906 109.75292969 C454.73623597 101.76548002 450.71534719 110.50211725 449.65234375 113.515625 Z M386.65234375 270.515625 C385.97171875 270.639375 385.29109375 270.763125 384.58984375 270.890625 C377.77363485 273.08940207 386.47613634 275.8898736 389.40625 275.81616211 C393.26841024 275.29938828 396.38663556 273.60797511 399.77734375 271.765625 C400.79248047 271.24355469 400.79248047 271.24355469 401.828125 270.7109375 C431.55320478 255.18720144 386.65234375 262.65021808 386.65234375 270.515625 Z M441.46484375 287.328125 C441.29267334 287.914729 441.12050293 288.50133301 440.94311523 289.10571289 C439.30496738 295.10361758 436.14184367 311.515625 445.65234375 311.515625 C449.55236661 303.71557928 446.07462971 271.21749676 441.46484375 287.328125 Z M312.39501953 360.68261719 C292.56829111 362.33989724 273.15928929 367.42875867 253.85162354 372.01589966 C252.2740856 372.37435141 250.69018769 372.70523901 249.10296631 373.01803589 C248.27734192 373.18344879 247.45171753 373.34886169 246.60107422 373.51928711 C245.84535126 373.66313339 245.0896283 373.80697968 244.31100464 373.95518494 C239.74458462 375.49811921 244.78224566 377.92739153 246.86743164 379.18115234 C253.07803428 382.95457553 256.57902213 386.31203175 259.71484375 392.890625 C263.0764293 399.54506803 265.88033943 401.61232471 273.57226562 402.31347656 C276.03402126 402.5527176 278.47005954 402.90403339 280.91796875 403.2578125 C291.3982222 404.72628846 301.92643463 405.81007406 312.46484375 406.765625 C313.9029541 406.9039978 313.9029541 406.9039978 315.37011719 407.04516602 C325.66610841 407.91273516 335.16750074 406.56173096 345.1953125 404.33203125 C356.13949305 405.14979991 341.06181551 412.80634614 337.65234375 413.515625 C334.40921265 413.8929951 331.2349818 413.93900684 327.97265625 413.8828125 C327.07515656 413.87442352 326.17765686 413.86603455 325.25296021 413.85739136 C314.57682637 413.63985457 304.08092217 412.16416769 293.52734375 410.640625 C291.54834856 410.36724541 289.56918159 410.09510639 287.58984375 409.82421875 C282.32874129 409.0973706 240.17576801 402.57330859 249.77734375 396.078125 C264.00211847 384.22414607 206.42118026 382.64991298 173.08251953 393.08740234 C167.73137919 395.47628672 162.68597155 398.00148353 157.765625 401.19140625 C155.46266932 402.63447829 153.10680619 403.78810366 150.65234375 404.953125 C147.29450652 406.59588229 144.3007827 408.38215355 141.27734375 410.578125 C133.10262153 416.46290156 124.36455335 421.47672457 115.65234375 426.515625 C114.87181641 426.96905273 114.09128906 427.42248047 113.28710938 427.88964844 C92.47718268 439.83079522 70.29938009 446.89502613 46.65234375 450.515625 C46.08022659 450.60487747 45.50810944 450.69412994 44.9186554 450.78608704 C39.21828616 451.59645025 33.5791201 451.67698145 27.828125 451.68359375 C26.80486618 451.68692215 25.78160736 451.69025055 24.7273407 451.69367981 C22.56994066 451.69872164 20.41253288 451.70108899 18.25512695 451.70092773 C14.99221605 451.70310672 11.72964778 451.72127147 8.46679688 451.74023438 C-1.98627287 451.76873634 -12.08920647 451.73677848 -22.34765625 449.515625 C-23.01933838 449.37922607 -23.69102051 449.24282715 -24.38305664 449.10229492 C-25.94052131 448.77036178 -27.4886933 448.39553045 -29.03515625 448.015625 C-32.66088389 447.13200396 -36.27865564 446.33690416 -39.9453125 445.6484375 C-47.23080076 444.21118758 -54.30746105 442.01298598 -61.421875 439.90625 C-63.01708984 439.44605469 -63.01708984 439.44605469 -64.64453125 438.9765625 C-65.59682617 438.69603027 -66.54912109 438.41549805 -67.53027344 438.12646484 C-72.73067466 436.99896018 -76.26992296 436.83400615 -80.41015625 440.328125 C-81.08820313 440.87597656 -81.76625 441.42382812 -82.46484375 441.98828125 C-83.08617187 442.49230469 -83.7075 442.99632812 -84.34765625 443.515625 C-86.98692597 445.23421923 -89.2688444 446.48649888 -92.22265625 447.578125 C-97.57974017 449.94154438 -90.62419082 451.28612214 -88.35546875 451.7421875 C-87.2768457 451.96511475 -86.19822266 452.18804199 -85.08691406 452.41772461 C-84.50123657 452.53485809 -83.91555908 452.65199158 -83.31213379 452.77267456 C-80.10948825 453.41329931 -76.91233202 454.0802823 -73.71484375 454.74609375 C-73.03454102 454.88715042 -72.35423828 455.02820709 -71.65332031 455.17353821 C-66.78611206 456.19105485 -61.94306823 457.29185049 -57.10546875 458.44140625 C-28.05570386 465.32983046 1.2542328 470.93436669 30.94848633 474.18457031 C33.51484554 474.49879001 36.06498145 474.88196258 38.61961365 475.27912903 C46.49062116 476.48644861 54.26105191 476.93692645 62.21484375 477.140625 C63.43817212 477.17902179 64.66147979 477.2180838 65.88476562 477.2578125 C95.07304419 478.16283194 124.00819735 476.30188244 153.06018066 473.74279785 C155.72835923 473.50896313 158.39683569 473.27884759 161.06542969 473.04980469 C185.74366588 470.93090864 210.39976409 468.6437108 235.02832031 466.00683594 C238.09718601 465.67892354 241.16674003 465.35944839 244.23730469 465.04785156 C276.8520736 461.73459477 308.97113316 456.92705048 339.46923828 444.39990234 C340.98943043 443.78414122 342.51717734 443.18684383 344.05029297 442.60400391 C350.26582801 440.21901536 355.9911529 437.29774562 361.77734375 434.015625 C367.07502216 431.03821615 372.36909943 428.11518242 377.8203125 425.42773438 C389.52294476 419.60137055 400.14180939 412.24598644 410.65234375 404.515625 C411.26029785 404.06896484 411.86825195 403.62230469 412.49462891 403.16210938 C418.50677014 398.71417104 424.34159476 394.07262582 429.96484375 389.140625 C430.67713135 388.53323486 430.67713135 388.53323486 431.40380859 387.91357422 C435.32271266 384.38052241 436.93339366 380.39673947 430.6640625 379.35546875 C429.81835693 379.20327881 428.97265137 379.05108887 428.10131836 378.89428711 C426.73438843 378.67591187 426.73438843 378.67591187 425.33984375 378.453125 C423.47994034 378.12275275 421.62055576 377.7894455 419.76171875 377.453125 C418.86775391 377.29457031 417.97378906 377.13601563 417.05273438 376.97265625 C414.3417104 376.45648081 411.72833264 375.75979676 409.08984375 374.953125 C397.36702866 371.60894209 385.13869375 370.48778006 373.02734375 369.578125 C361.88554189 368.71914707 351.48713061 366.5736367 340.80078125 363.3671875 C331.07213227 360.48745725 322.47295501 359.93707232 312.39501953 360.68261719 Z M-178.34765625 392.515625 C-177.91195312 393.16660156 -177.47625 393.81757813 -177.02734375 394.48828125 C-173.97757908 398.94627058 -170.73704119 401.88241519 -166.33984375 404.96875 C-164.26805874 406.57743013 -162.71540865 408.25575371 -161.03515625 410.265625 C-153.40980082 419.30563913 -144.44582593 426.44603064 -134.34765625 432.515625 C-133.81350098 432.83692383 -133.2793457 433.15822266 -132.72900391 433.48925781 C-125.39569944 437.82604114 -84.34765625 452.63639612 -84.34765625 434.515625 C-86.44376299 433.17926693 -86.44376299 433.17926693 -89.22265625 431.890625 C-90.0115625 431.5047522 -90.0115625 431.5047522 -90.81640625 431.11108398 C-94.84021833 429.16865301 -98.92502073 427.37586689 -103.02124023 425.5925293 C-118.64184544 418.78136185 -132.63306853 409.99599826 -145.96484375 399.39453125 C-147.80902937 397.94034554 -149.6656967 396.51590303 -151.54296875 395.10546875 C-156.9443032 391.0349315 -162.07549295 387.0344473 -166.73046875 382.1015625 C-169.12585937 379.75245963 -171.83658648 377.89327095 -174.5546875 375.9375 C-176.23010295 374.6088481 -177.43944732 373.33884946 -178.72265625 371.640625 C-183.50036001 365.39285855 -182.83166676 387.15430808 -178.34765625 392.515625 Z " transform="translate(244.34765625,17.484375)" style="fill: #FFFFFF;"/></svg>